<svg id="Layer_1" data-name="Layer 1" xmlns="http://www.w3.org/2000/svg" viewBox="0 0 160 160"><defs><style>.cls-1{fill:#d3eff9;}.cls-2{fill:#fff;}.cls-3{fill:#40bbea;}</style></defs><circle class="cls-1" cx="80" cy="80" r="57.76"/><path class="cls-2" d="M102.56,101.61l-7.4-2A41,41,0,0,0,93,83.46l6.6-3.86a2.6,2.6,0,0,0,1-3.58l-5.33-9.21a2.58,2.58,0,0,0-3.57-1l-6.61,3.86a40.31,40.31,0,0,0-12.92-9.89l2-7.43a2.57,2.57,0,0,0-1.85-3.19L62,46.46a2.65,2.65,0,0,0-3.22,1.88l-1.95,7.4a41.22,41.22,0,0,0-16.11,2.17L36.92,51.3a2.62,2.62,0,0,0-3.61-.95l-9.18,5.36a2.64,2.64,0,0,0-1,3.6L27,66a41.3,41.3,0,0,0-9.89,13L9.74,77a2.64,2.64,0,0,0-3.22,1.88L3.81,89.13a2.62,2.62,0,0,0,1.85,3.23L13,94.3a41.19,41.19,0,0,0,2.14,16.17l-6.6,3.86a2.63,2.63,0,0,0-1,3.58l5.33,9.25a2.6,2.6,0,0,0,3.57.92l6.64-3.83A40.13,40.13,0,0,0,36,134.11l-1.94,7.43a2.61,2.61,0,0,0,1.85,3.22l10.27,2.72a2.6,2.6,0,0,0,3.19-1.89l2-7.4A40.49,40.49,0,0,0,67.47,136l3.83,6.61a2.59,2.59,0,0,0,3.58,1l9.21-5.35a2.64,2.64,0,0,0,.93-3.61l-3.8-6.6a40.9,40.9,0,0,0,9.86-13l7.4,1.94a2.6,2.6,0,0,0,3.19-1.85l2.74-10.33A2.56,2.56,0,0,0,102.56,101.61Zm-23.19,2.07A26.14,26.14,0,1,1,60.84,71.59,26.21,26.21,0,0,1,79.37,103.68Z"/><path class="cls-3" d="M46.88,149.57a4.57,4.57,0,0,1-1.21-.16L35.42,146.7a4.61,4.61,0,0,1-2.82-2.17,4.54,4.54,0,0,1-.45-3.51l1.53-5.86a42,42,0,0,1-10.95-8.36l-5.23,3a4.6,4.6,0,0,1-6.29-1.64L5.87,118.9a4.49,4.49,0,0,1-.46-3.5,4.66,4.66,0,0,1,2.13-2.79l5.23-3A42.63,42.63,0,0,1,11,95.82l-5.8-1.53a4.63,4.63,0,0,1-2.82-2.16,4.57,4.57,0,0,1-.45-3.52l2.7-10.29A4.67,4.67,0,0,1,6.73,75.5,4.53,4.53,0,0,1,10.27,75l5.79,1.53a43,43,0,0,1,8.4-11l-3-5.24A4.64,4.64,0,0,1,23.11,54l9.19-5.36a4.65,4.65,0,0,1,6.35,1.69l3,5.2a42.87,42.87,0,0,1,13.67-1.84l1.53-5.84a4.71,4.71,0,0,1,5.65-3.32l10.3,2.76a4.56,4.56,0,0,1,3.26,5.64l-1.56,5.86a42.16,42.16,0,0,1,11,8.39l5.2-3a4.63,4.63,0,0,1,3.55-.47A4.53,4.53,0,0,1,97,65.84L102.32,75a4.63,4.63,0,0,1,.46,3.55,4.49,4.49,0,0,1-2.19,2.78l-5.17,3a42.91,42.91,0,0,1,1.82,13.74l5.83,1.56a4.57,4.57,0,0,1,3.27,5.65l-2.74,10.33a4.65,4.65,0,0,1-2.19,2.83,4.53,4.53,0,0,1-3.47.43l-5.8-1.53a43,43,0,0,1-8.38,11l3,5.22A4.66,4.66,0,0,1,85.11,140l-9.23,5.36a4.59,4.59,0,0,1-6.31-1.69l-3-5.19a42.79,42.79,0,0,1-13.68,1.84l-1.56,5.84a4.59,4.59,0,0,1-4.44,3.46ZM23.14,122.25a2,2,0,0,1,1.51.69,38,38,0,0,0,12.25,9.37A2,2,0,0,1,38,134.62l-2,7.43a.61.61,0,0,0,.06.49.65.65,0,0,0,.38.3l10.26,2.7a.6.6,0,0,0,.46,0,.63.63,0,0,0,.28-.38l2-7.43a2,2,0,0,1,2.07-1.48,38.57,38.57,0,0,0,15.32-2.07,2,2,0,0,1,2.39.89L73,141.63a.66.66,0,0,0,.38.3.55.55,0,0,0,.45-.07l9.23-5.36a.65.65,0,0,0,.2-.88l-3.8-6.6a2,2,0,0,1,.41-2.5,38.83,38.83,0,0,0,9.38-12.35,2,2,0,0,1,2.31-1.07l7.4,2a.62.62,0,0,0,.45,0,.68.68,0,0,0,.3-.39l2.74-10.33a.64.64,0,0,0,0-.47.52.52,0,0,0-.35-.26h0l-7.4-2a2,2,0,0,1-1.48-2.07,38.83,38.83,0,0,0-2-15.38A2,2,0,0,1,92,81.73l6.6-3.86a.55.55,0,0,0,.3-.36.56.56,0,0,0-.06-.47l-5.33-9.23a.59.59,0,0,0-.83-.24l-6.61,3.87A2,2,0,0,1,83.57,71a38.21,38.21,0,0,0-12.28-9.4,2,2,0,0,1-1.06-2.31l2-7.44a.59.59,0,0,0-.06-.47.53.53,0,0,0-.34-.26L61.5,48.39a.66.66,0,0,0-.77.47l-1.94,7.39a2,2,0,0,1-2.06,1.48A39.13,39.13,0,0,0,41.4,59.8,2,2,0,0,1,39,58.91l-3.82-6.6a.62.62,0,0,0-.88-.23l-9.18,5.35a.65.65,0,0,0-.24.86L28.73,65a2,2,0,0,1-.42,2.5A39.33,39.33,0,0,0,18.9,79.78a2,2,0,0,1-2.3,1l-7.37-2a.65.65,0,0,0-.78.48L5.74,89.64a.61.61,0,0,0,.06.49.58.58,0,0,0,.38.3l7.36,1.94A2,2,0,0,1,15,94.44a39,39,0,0,0,2,15.38,2,2,0,0,1-.88,2.38l-6.6,3.86a.69.69,0,0,0-.3.39.56.56,0,0,0,.06.44l5.33,9.27a.61.61,0,0,0,.83.2l6.65-3.84A2,2,0,0,1,23.14,122.25Zm30.9,3a28.13,28.13,0,0,1-24.27-14,28.14,28.14,0,1,1,24.27,14Zm.08-52.5a24.24,24.24,0,1,0,23.32,30.46h0A24.19,24.19,0,0,0,60.33,73.52,24.46,24.46,0,0,0,54.12,72.71Z"/><ellipse class="cls-2" cx="84.73" cy="49.29" rx="34.8" ry="34.95"/><path class="cls-2" d="M118.24,70.22l36.14,36.14c3.05,3.2,2.29,8.86-1.22,12.23h0a8.08,8.08,0,0,1-11.48.23L105.55,82.68"/><path class="cls-1" d="M153.16,118.59h0a8.08,8.08,0,0,1-11.48.23L105.55,82.68l6.29-6.29"/><path d="M147.16,123.09a9.62,9.62,0,0,1-6.89-2.86L104.13,84.1A2,2,0,0,1,107,81.27l36.14,36.14c2.35,2.36,6.08,2.25,8.68-.26,2.81-2.71,3.35-7.11,1.15-9.41l-36.1-36.11a2,2,0,0,1,2.82-2.82l36.14,36.13c3.76,3.94,3.18,10.84-1.24,15.1A10.67,10.67,0,0,1,147.16,123.09Z"/><polyline class="cls-2" points="116.29 63.94 125.46 73.11 108.56 90.02 99.38 80.85"/><path d="M108.56,92a2,2,0,0,1-1.42-.58L98,82.27a2,2,0,1,1,2.83-2.83l7.76,7.75,14.08-14.07-7.76-7.76a2,2,0,1,1,2.83-2.83l9.17,9.17a2,2,0,0,1,0,2.83L110,91.44A2,2,0,0,1,108.56,92Z"/><path class="cls-1" d="M107.76,72.32c-9.59,9.59-30.77,4-40.42-5.64S52.16,35.59,61.75,26L60,24.58h0A34.95,34.95,0,0,0,109.44,74"/><path d="M84.73,86.24a37,37,0,1,1,36.8-36.95A36.91,36.91,0,0,1,84.73,86.24Zm0-69.9a33,33,0,1,0,32.8,33A32.92,32.92,0,0,0,84.73,16.34Z"/><path class="cls-3" d="M84.73,75.73A26.41,26.41,0,0,1,58.4,49.29a2,2,0,0,1,4,0A22.41,22.41,0,0,0,84.73,71.73a2,2,0,0,1,0,4Z"/></svg>