<svg id="Layer_1" data-name="Layer 1" xmlns="http://www.w3.org/2000/svg" viewBox="0 0 160 160"><defs><style>.cls-1{fill:#d3eff9;}.cls-2{fill:#fff;}.cls-3{fill:#d0ebf6;}.cls-4{fill:#e9f4fa;}.cls-5{fill:#4bb9e5;}</style></defs><circle class="cls-1" cx="80" cy="80" r="57.76"/><path class="cls-2" d="M139.4,29.18h0l-116,39.49a4.07,4.07,0,0,0-.59,7.51L57.42,87.34l0,0,0-.11Z"/><path class="cls-2" d="M69.36,99.22l.21.63,5.59,16.79v0l9,27.13a4.06,4.06,0,0,0,7.61.27L139.4,29.18,77,91.63Z"/><path class="cls-3" d="M81.55,135.81l2.66,8a4.06,4.06,0,0,0,7.61.27L139.4,29.18"/><polygon class="cls-3" points="75.16 116.64 75.16 116.66 67.43 119.42 67.43 119.39 47.41 126.5 69.34 99.25 69.57 99.84 75.16 116.64"/><polygon class="cls-3" points="139.41 29.17 139.4 29.18 57.47 87.25 57.44 87.36 47.42 126.5 47.42 126.5 47.42 126.5 47.42 126.5 69.34 99.24 69.34 99.23 69.36 99.22 76.95 91.63 139.4 29.18 139.41 29.17 139.41 29.17"/><polygon class="cls-4" points="47.42 126.5 47.42 126.5 47.42 126.5 47.42 126.5"/><polygon class="cls-4" points="69.36 99.22 69.34 99.23 69.57 99.85 69.36 99.22"/><polygon class="cls-4" points="139.41 29.17 139.41 29.17 139.4 29.18 139.41 29.17"/><path d="M47.42,128.5a2,2,0,0,1-1.65-3.13h0a2,2,0,1,1,2.13,3.08A2.05,2.05,0,0,1,47.42,128.5Zm1.65-.87h0Z"/><path d="M69.57,101.85a2,2,0,0,1-1.89-1.32l-.22-.62a2,2,0,1,1,3.79-1.32l.21.63a2,2,0,0,1-1.24,2.52A1.89,1.89,0,0,1,69.57,101.85Z"/><path d="M47.41,128.5a2,2,0,0,1-1.55-3.25L67.78,98a2,2,0,0,1,3.42.52l.23.59a.3.3,0,0,0,0,.1L77.06,116a2.19,2.19,0,0,1,.1.63v0a2,2,0,0,1-1.33,1.89L68.1,121.3a1.71,1.71,0,0,1-.3.09l-19.72,7A1.92,1.92,0,0,1,47.41,128.5Zm21.21-25.17L53.4,122.26l13.36-4.75.3-.08,5.59-2Z"/><path d="M57.44,89.36a1.92,1.92,0,0,1-.82-.18L22.22,78.07,21.94,78a6.06,6.06,0,0,1,.88-11.2L138.76,27.28a2,2,0,0,1,2.09,3.28,2.26,2.26,0,0,1-.29.25L59,88.61a2,2,0,0,1-1,.68A2.41,2.41,0,0,1,57.44,89.36Zm-33.83-15L57,85.11,127,35.5,24.07,70.56a2.06,2.06,0,0,0-.46,3.76Z"/><path d="M139.4,31.18a2,2,0,1,1,1.18-.39h0A2,2,0,0,1,139.4,31.18Z"/><path d="M88.07,148.57h-.22a6,6,0,0,1-5.54-4.14L67.46,99.85a2,2,0,0,1,.48-2l70.05-70a2,2,0,0,1,3.26,2.18L93.66,144.83A6,6,0,0,1,88.07,148.57ZM71.64,99.76l14.47,43.4a2.06,2.06,0,0,0,3.86.14L133.71,37.7Z"/><path d="M47.42,128.5a1.92,1.92,0,0,1-.66-.12,2,2,0,0,1-1.34-1.88,2.08,2.08,0,0,1,.07-.5l10-39.25a2,2,0,0,1,.78-1.14l81.93-58.07h0a2,2,0,0,1,2.56,3l-70,70L49,127.75A2,2,0,0,1,47.42,128.5Zm11.8-40-7.57,29.6L67.78,98a1.37,1.37,0,0,1,.16-.18l53.34-53.34Z"/><path class="cls-5" d="M46.11,146.94a2,2,0,0,1-1.42-3.42l10-10a2,2,0,1,1,2.83,2.83l-10,10A2,2,0,0,1,46.11,146.94Z"/><path class="cls-5" d="M64.73,139.76a2,2,0,0,1-1.41-3.41l7.4-7.4a2,2,0,0,1,2.82,2.83l-7.4,7.4A2,2,0,0,1,64.73,139.76Z"/><path class="cls-5" d="M28.54,118.15a2,2,0,0,1-1.42-3.41L38.5,103.36a2,2,0,0,1,2.83,2.83L30,117.57A2,2,0,0,1,28.54,118.15Z"/><path class="cls-5" d="M33.7,100.37A2,2,0,0,1,32.29,97l7.2-7.2a2,2,0,1,1,2.83,2.83l-7.2,7.2A2,2,0,0,1,33.7,100.37Z"/></svg>