<svg id="Layer_1" data-name="Layer 1" xmlns="http://www.w3.org/2000/svg" viewBox="0 0 160 160"><defs><style>.cls-1{fill:#d3eff9;}.cls-2{fill:#fff;}.cls-3{fill:#40b9ea;}</style></defs><circle class="cls-1" cx="80" cy="80" r="57.76"/><path class="cls-2" d="M33.62,51.89a1.25,1.25,0,0,0,1.77,0L43,44.25a.75.75,0,0,1,1.06,0,.74.74,0,0,1,0,1.06L36.45,53a1.25,1.25,0,0,0,0,1.77L47.89,66.16a1.25,1.25,0,0,0,1.77,0l7.64-7.64a.75.75,0,0,1,1.06,0,.74.74,0,0,1,0,1.06l-7.64,7.64a1.27,1.27,0,0,0,0,1.77l7.66,7.66a1.24,1.24,0,0,0,.88.36,1.28,1.28,0,0,0,.89-.36L79.59,57.2a1.23,1.23,0,0,0,0-1.76L48,23.86a7.79,7.79,0,0,0-11,0L22.18,38.68a1.25,1.25,0,0,0,0,1.77Z"/><path class="cls-2" d="M27.36,123.83a1.25,1.25,0,0,0-2.08.5l-4,12.45a1.27,1.27,0,0,0,.3,1.26,1.26,1.26,0,0,0,.89.37,1.49,1.49,0,0,0,.36,0l12.65-3.74a1.25,1.25,0,0,0,.53-2.09Z"/><path class="cls-2" d="M130.37,49.24a1.25,1.25,0,0,0,.89.37,1.21,1.21,0,0,0,.88-.37l4.31-4.3a7.79,7.79,0,0,0-.09-11.1L126,23.78a7.83,7.83,0,0,0-10.93.09L110.91,28a1.25,1.25,0,0,0,0,1.77Z"/><path class="cls-2" d="M104.72,80.55a1.24,1.24,0,0,0-1.76,0L83.5,100a1.27,1.27,0,0,0-.36.89,1.25,1.25,0,0,0,.36.88L90.71,109a1.27,1.27,0,0,0,1.77,0l7.64-7.65a.75.75,0,1,1,1.06,1.06L93.54,110a1.25,1.25,0,0,0,0,1.77L105,123.25a1.27,1.27,0,0,0,1.77,0l7.64-7.65a.75.75,0,0,1,1.06,1.06l-7.64,7.64a1.25,1.25,0,0,0,0,1.77l11.43,11.44a1.25,1.25,0,0,0,.88.36h0a1.22,1.22,0,0,0,.88-.37l14.78-15a7.8,7.8,0,0,0,0-11Z"/><path class="cls-2" d="M103.31,78.07l.06,0,25.94-25.95a1.22,1.22,0,0,0,.37-.88,1.26,1.26,0,0,0-.37-.89L109.85,30.84a1.25,1.25,0,0,0-1.77,0L59.82,79.1l0,0L36.33,102.59a1.62,1.62,0,0,0-.22,1.54l.19,5.57a4,4,0,0,0,1.16,2.64,3.86,3.86,0,0,0,2.65,1.15l1.19.05a5.44,5.44,0,0,1,5.25,5.24l0,1.21a4,4,0,0,0,3.8,3.8L56,124a.67.67,0,0,1,.27.07,1.37,1.37,0,0,0,.48.1,1.25,1.25,0,0,0,.88-.37L103.28,78.1Z"/><path class="cls-2" d="M53,125.38l-2.69-.09A5.44,5.44,0,0,1,45.09,120l0-1.21a4,4,0,0,0-3.8-3.8l-1.2,0a5.44,5.44,0,0,1-5.24-5.24l-.1-2.57a1.22,1.22,0,0,0-.79-1.12,1.24,1.24,0,0,0-1.34.28l-2.12,2.11a1.26,1.26,0,0,0-.3.51L26.64,120A1.25,1.25,0,0,0,27,121.3l11.33,11.31a1.76,1.76,0,0,0,.14.23,1.23,1.23,0,0,0,1,.56,1.41,1.41,0,0,0,.35-.05L51.18,130a1.26,1.26,0,0,0,.53-.32l2.16-2.15a1.26,1.26,0,0,0,.28-1.34A1.27,1.27,0,0,0,53,125.38Z"/><path class="cls-1" d="M65.26,71.49,27.19,33.42l-6,6L59.41,77.7C61.42,75.69,63.38,73.62,65.26,71.49Z"/><path class="cls-1" d="M88.64,94.87q-3,3-6.11,6l37.8,37.8,6-6Z"/><path class="cls-1" d="M131.82,50.65c-2.12-2.25-5.33-5.24-5.33-5.24L47.74,122.67l-11.6,7.1A32.63,32.63,0,0,1,39,134l13.43-4Z"/><path class="cls-1" d="M35.67,130.06l-9-9L20,139.66,39,134a32.63,32.63,0,0,0-2.84-4.27Z"/><path class="cls-1" d="M138.34,33.92l-4.71-4.56a8.53,8.53,0,0,0-12,.09L116.2,34.9c1.83,1.68,13.5,13.5,15.62,15.75L137.5,45A8.53,8.53,0,0,0,138.34,33.92Z"/><path class="cls-3" d="M59.79,80.1a2,2,0,0,1-1.41-.59l-39-39a2,2,0,0,1,0-2.82L35.57,21.43a10.54,10.54,0,0,1,14.9,0l33,33a2,2,0,0,1-2.83,2.83l-33-33a6.54,6.54,0,0,0-9.24,0L23.59,39.07,61.2,76.69a2,2,0,0,1,0,2.82A2,2,0,0,1,59.79,80.1Z"/><path class="cls-3" d="M120.66,141a2,2,0,0,1-1.42-.59L80.67,101.81A2,2,0,0,1,83.5,99l37.15,37.15,14.78-15a6.57,6.57,0,0,0,0-9.22L102.94,79.52a2,2,0,1,1,2.82-2.83l32.46,32.43a10.56,10.56,0,0,1,.05,14.86l-16.19,16.39a2,2,0,0,1-1.42.6Z"/><path class="cls-3" d="M35.86,54.51a2,2,0,0,1-1.41-3.42l8.22-8.22A2,2,0,1,1,45.5,45.7l-8.22,8.22A2,2,0,0,1,35.86,54.51Z"/><path class="cls-3" d="M50.14,68.78a2,2,0,0,1-1.42-3.42l8.22-8.22A2,2,0,1,1,59.77,60l-8.22,8.22A2,2,0,0,1,50.14,68.78Z"/><path class="cls-3" d="M93,111.59a2,2,0,0,1-1.41-3.41L99.76,100a2,2,0,0,1,2.83,2.82L94.36,111A2,2,0,0,1,93,111.59Z"/><path class="cls-3" d="M107.22,125.86a2,2,0,0,1-1.41-.58,2,2,0,0,1,0-2.83l8.22-8.22a2,2,0,0,1,2.83,2.83l-8.22,8.22A2,2,0,0,1,107.22,125.86Z"/><path d="M20,141.66a2,2,0,0,1-1.91-2.61l10.12-31.88a1.94,1.94,0,0,1,.49-.81l84.93-84.93a10.58,10.58,0,0,1,14.78-.12L138.8,31.38a10.53,10.53,0,0,1,.11,15L53.82,131.48A2.06,2.06,0,0,1,53,132l-32.4,9.58A1.88,1.88,0,0,1,20,141.66Zm11.87-32.81-8.82,27.82,28.3-8.37,84.74-84.74A6.54,6.54,0,0,0,138,38.89a6.47,6.47,0,0,0-2-4.64L125.63,24.19a6.56,6.56,0,0,0-9.17.07Zm20.54,21.22h0Z"/><line class="cls-2" x1="38.35" y1="132.74" x2="26.63" y2="121.03"/><path d="M38.35,134.74a2,2,0,0,1-1.42-.58L25.22,122.44a2,2,0,1,1,2.83-2.82l11.71,11.71a2,2,0,0,1,0,2.83A2,2,0,0,1,38.35,134.74Z"/><line class="cls-2" x1="109.45" y1="28.36" x2="131.78" y2="50.7"/><path d="M131.78,52.7a2,2,0,0,1-1.41-.59L108,29.78A2,2,0,1,1,110.86,27l22.33,22.33a2,2,0,0,1-1.41,3.42Z"/><path d="M56.46,126.25h-.07L50.81,126a6.67,6.67,0,0,1-6.44-6.44l0-1.21a2.66,2.66,0,0,0-.78-1.81,2.75,2.75,0,0,0-1.81-.79l-1.21,0a6.69,6.69,0,0,1-6.44-6.45l-.2-5.56a2,2,0,0,1,4-.14l.2,5.56a2.67,2.67,0,0,0,2.59,2.59l1.21,0a6.69,6.69,0,0,1,6.44,6.44l0,1.21a2.7,2.7,0,0,0,2.6,2.6l5.57.2a2,2,0,0,1-.07,4Z"/></svg>