<?xml version="1.0" encoding="utf-8"?>
<!-- Generator: Adobe Illustrator 25.4.1, SVG Export Plug-In . SVG Version: 6.00 Build 0)  -->
<svg version="1.1" id="Layer_1" xmlns="http://www.w3.org/2000/svg" xmlns:xlink="http://www.w3.org/1999/xlink" x="0px" y="0px"
	 viewBox="0 0 436.6 344.7" style="enable-background:new 0 0 436.6 344.7;" xml:space="preserve">
<style type="text/css">
	.st0{fill:#FFFFFF;}
</style>
<path class="st0" d="M10.8,83.4C3.6,76.5,0,65.5,0,50.4c0-14.6,3.7-25.5,11.1-32.8S29.2,6.7,43.2,6.7c6.1,0,12.3,0.7,18.2,2.2v12.7
	c-5.6-1.4-11.4-2.1-17.2-2.1c-6.3,0-11.6,1-15.7,3.1c-4.2,2.1-7.5,5.6-9.3,9.8c-2.1,4.5-3.1,10.4-3.1,17.8c0,7.5,1,13.5,3.1,18
	c1.8,4.2,5.1,7.7,9.2,9.7c4,2,9.1,3,15.3,3c6,0,12-1,17.8-2.8V91c-3,1-6,1.7-9.2,2.1c-3.3,0.5-6.7,0.8-10,0.8
	C28.6,93.8,18.1,90.3,10.8,83.4z"/>
<path class="st0" d="M71.6,85.8c-5.1-5.4-7.7-13.5-7.7-24.2s2.5-18.9,7.6-24.3c5.1-5.4,12.2-8.1,21.5-8.1c9.3,0,16.5,2.7,21.5,8.1
	c5.1,5.4,7.6,13.5,7.6,24.3c0,7.2-1.2,13.2-3.5,18c-2.1,4.6-5.7,8.4-10.1,10.8c-4.8,2.5-10.1,3.7-15.6,3.6
	C83.9,93.9,76.7,91.2,71.6,85.8z M103.5,77.6c2.3-3.1,3.5-8.5,3.5-16c0-7.6-1.2-13-3.5-16.1c-2.3-3.2-5.8-4.7-10.5-4.7
	s-8.1,1.6-10.5,4.7S79,53.9,79,61.4c-0.1,4.2,0.4,8.3,1.6,12.3c0.8,2.7,2.4,5,4.7,6.6c2.3,1.4,5,2.1,7.7,2
	C97.6,82.3,101.1,80.7,103.5,77.6z"/>
<path class="st0" d="M132,30.1h12.4l1,6.6h0.8c2.4-2.4,5.2-4.4,8.4-5.6c3.3-1.3,6.8-2,10.4-2c6.5,0,11.6,1.9,15.3,5.7
	c3.8,3.8,5.6,9.8,5.6,18v39.9h-15v-39c0-4.2-0.9-7.2-2.6-8.9c-1.8-1.8-4.3-2.7-7.7-2.7c-2.6,0-5.1,0.5-7.5,1.6
	c-2.4,1-4.5,2.7-6.1,4.7v44.3H132V30.1z"/>
<path class="st0" d="M196.5,91.2V80c6.1,1.8,12.5,2.8,18.9,2.8c4.4,0,7.7-0.7,9.7-2c2-1.2,3.2-3.4,3.1-5.8c0.1-1.7-0.5-3.4-1.6-4.7
	c-1.1-1.1-2.9-1.9-5.5-2.4l-9.5-1.8c-5.8-1.1-10-3.1-12.6-6c-2.6-2.9-4-6.7-4-11.6c-0.1-3.6,1-7.2,3.1-10.2c2.4-3.1,5.6-5.5,9.3-6.7
	c5-1.7,10.2-2.6,15.5-2.4c5.4,0,10.8,0.6,16,2v11.1c-5.1-1.4-10.3-2-15.6-2c-9.5,0-14.2,2.6-14.2,7.8c-0.1,1.6,0.5,3.2,1.6,4.4
	c1.5,1.3,3.4,2.2,5.4,2.4l9.5,1.8c5.7,1.2,10,3.1,12.6,5.9c2.7,2.8,4,6.7,4.1,11.9c0.1,3.7-1,7.3-3.1,10.4c-2.3,3.1-5.5,5.4-9.1,6.7
	c-4.6,1.7-9.6,2.5-14.5,2.3C209.1,94,202.7,93.1,196.5,91.2z"/>
<path class="st0" d="M256,88.1c-3.8-3.8-5.6-9.8-5.6-18v-40h15v39.1c0,4.2,0.9,7.2,2.6,8.9s4.2,2.7,7.4,2.7c2.5,0,5-0.6,7.3-1.6
	c2.4-1,4.5-2.7,6-4.8V30.1h15v62.6h-12.4l-1-6.5h-0.7c-2.4,2.4-5.2,4.3-8.3,5.7c-3.1,1.3-6.5,1.9-9.9,1.9
	C264.9,93.8,259.7,91.9,256,88.1z"/>
<path class="st0" d="M316.5,92.7V0h15v92.7H316.5z"/>
<path class="st0" d="M381.6,80.6v12.1c-3.6,0.8-7.2,1.3-10.9,1.3c-14.8,0-22.3-7.5-22.3-22.4V42.1h-10.8v-12h10.8l2.6-22.3h12.4
	v22.3h17.5v12h-17.5V69c-0.1,2.5,0.3,5,1.2,7.3c0.7,1.7,2,3.1,3.6,3.9c2,0.9,4.2,1.3,6.4,1.2C377,81.3,379.4,81,381.6,80.6z"/>
<path class="st0" d="M424.9,31.5c3.8,1.5,6.9,4.2,8.8,7.8c1.9,3.6,2.9,8.6,2.9,14.8v38.6h-12.5l-1-6.5h-0.8
	c-1.9,2.5-4.4,4.4-7.3,5.7c-3.1,1.3-6.5,2-9.8,1.9c-3.7,0.1-7.3-0.7-10.6-2.2c-2.9-1.3-5.2-3.5-6.9-6.2c-1.6-2.8-2.5-6.1-2.4-9.4
	c0-5.8,2-10.3,6-13.5c4-3.2,10.3-5.1,18.9-5.8l11.7-1.1v-2.5c0.1-2.6-0.4-5.2-1.5-7.5c-1-1.8-2.7-3.2-4.8-3.9
	c-2.8-0.9-5.8-1.3-8.7-1.2c-2.8,0-5.6,0.2-8.3,0.7c-2.9,0.4-5.8,1.1-8.6,2V31.9c3.1-0.9,6.3-1.6,9.5-2c3.3-0.4,6.7-0.7,10-0.7
	C415.8,29.2,420.9,29.9,424.9,31.5z M416.3,81.9c2.1-0.9,4.1-2.3,5.6-4V64.6l-10.3,0.9c-3.9,0.4-6.8,1.3-8.6,2.8
	c-1.8,1.6-2.8,3.9-2.7,6.3c-0.2,2.4,0.7,4.7,2.4,6.4c1.6,1.5,4,2.2,7.1,2.2C412,83.2,414.2,82.7,416.3,81.9z"/>
<path class="st0" d="M2.4,124.1c8.5-1.7,17.1-2.5,25.7-2.5c12.8,0,22.3,2.5,28.6,7.5s9.4,12.7,9.4,23.2c0,10.1-3.1,17.7-9.3,22.9
	c-6.2,5.2-15.4,7.7-27.5,7.8c-1.7,0-4.5-0.1-8.2-0.2v24.8H2.4V124.1z M43.5,165c3-2.6,4.4-6.8,4.4-12.6s-1.5-10.1-4.4-12.8
	s-7.5-4-13.7-4c-2.9,0-5.8,0.2-8.7,0.7v32.1c2.8,0.3,5.6,0.5,8.4,0.5C35.9,168.9,40.6,167.6,43.5,165z"/>
<path class="st0" d="M80.4,202.6c-3.9-4-5.8-10.2-5.8-18.7v-39.2h18.4v38c0,3.6,0.7,6.2,2.2,7.7c1.7,1.6,4,2.5,6.3,2.3
	c2.1,0,4.2-0.5,6.1-1.3c2-0.8,3.8-2.1,5.2-3.8v-42.9h18.4v62.8H116l-1.3-6.3H114c-2.3,2.4-5.1,4.3-8.1,5.5c-3,1.3-6.3,1.9-9.6,1.9
	C89.6,208.6,84.3,206.6,80.4,202.6z M94.4,136.7l12.9-22h19.5l-15.6,22H94.4z"/>
<path class="st0" d="M154.2,207.8c-4-0.5-7.9-1.4-11.6-2.6v-90.4h18.4v36h0.9c1.8-2.3,4.2-4.1,6.9-5.2c3-1.3,6.1-1.9,9.4-1.8
	c4.3-0.1,8.6,1.1,12.3,3.3c3.9,2.5,7,6.1,8.8,10.3c2.2,4.7,3.3,10.5,3.3,17.5c0,11.1-3,19.6-8.9,25.2c-5.9,5.7-14.8,8.5-26.6,8.6
	C162.7,208.6,158.4,208.3,154.2,207.8z M180.1,190.4c2.6-2.9,3.8-7.6,3.8-14.1c0-6.5-1.1-11.1-3.3-13.6c-2.2-2.6-5.4-3.9-9.6-3.9
	c-1.9,0-3.8,0.3-5.6,0.9c-1.7,0.6-3.3,1.6-4.6,2.8v31.3c2.4,0.6,4.9,0.9,7.4,0.9C173.6,194.8,177.5,193.3,180.1,190.4z"/>
<path class="st0" d="M211,207.5v-92.7h18.4v92.7H211z"/>
<path class="st0" d="M241.4,133.1c-2-1.8-3-4.4-2.8-7.1c0-3.1,0.9-5.5,2.8-7.1c1.9-1.6,4.7-2.5,8.6-2.5c3.8,0,6.6,0.8,8.5,2.5
	c1.9,1.6,2.8,4,2.8,7.1c0.2,2.7-0.9,5.2-2.8,7.1c-1.9,1.6-4.7,2.5-8.5,2.5S243.3,134.8,241.4,133.1z M240.8,207.5v-62.8h18.4v62.8
	H240.8z"/>
<path class="st0" d="M276.2,200.6c-5.6-5.4-8.3-13.5-8.3-24.4s3-19,8.9-24.4c5.9-5.4,14.5-8.1,25.7-8.1c4.7,0,9.4,0.4,14.1,1.4v14.5
	c-3.8-0.8-7.7-1.2-11.5-1.2c-3.5-0.1-7.1,0.5-10.4,1.8c-2.6,1.1-4.7,3.1-5.9,5.6c-1.4,3.2-2,6.7-1.9,10.1c0,6.3,1.4,10.9,4.1,13.7
	c2.7,2.8,6.9,4.2,12.5,4.2c2,0,4-0.2,6-0.5c2-0.3,4.4-0.9,7.1-1.6v14.5c-5.2,1.6-10.5,2.4-16,2.4C289.9,208.7,281.8,206,276.2,200.6
	z"/>
<path class="st0" d="M362.5,146.3c4,1.5,7.4,4.5,9.4,8.3c2,3.8,3,9.1,3,15.6v37.3h-15.1l-1.3-6.2h-0.9c-1.8,2.5-4.2,4.4-7.1,5.5
	c-6.6,2.6-14,2.4-20.5-0.4c-2.9-1.4-5.3-3.6-7-6.4c-1.7-2.9-2.5-6.2-2.4-9.6c0-6,2.1-10.6,6.3-13.9s10.8-5.2,19.8-5.8l10.2-0.9V169
	c0.1-2.4-0.4-4.7-1.4-6.8c-1-1.7-2.6-3-4.5-3.5c-2.7-0.8-5.6-1.2-8.4-1.1c-2.8,0-5.6,0.2-8.4,0.6c-2.9,0.4-5.8,1-8.6,1.9v-13.8
	c3.3-0.9,6.6-1.5,9.9-1.9c3.4-0.4,6.9-0.7,10.4-0.7C352.8,143.7,358.3,144.6,362.5,146.3z M352.3,195c1.8-0.6,3.3-1.7,4.6-3v-11.8
	l-8.4,0.6c-3.5,0.3-6,1.1-7.5,2.4c-1.6,1.4-2.5,3.4-2.4,5.5c-0.1,2,0.6,4,2.1,5.3c1.4,1.2,3.5,1.8,6.2,1.8
	C348.8,195.9,350.6,195.6,352.3,195z"/>
<polygon class="st0" points="2.7,344.7 2.7,259.9 11.5,259.9 11.5,324.7 82.6,260.1 427.5,260.1 427.5,144.6 436.3,144.6 436.3,269 
	86,269 "/>
</svg>
