<svg id="Capa_6" data-name="Capa 6" xmlns="http://www.w3.org/2000/svg" viewBox="0 0 1316 316"><defs><style>.cls-1{fill:#0094d4;}.cls-2{fill:#0091ce;}.cls-3{fill:#fff;}.cls-4{fill:#1e120d;}.cls-5{fill:#fac600;}.cls-6{fill:#389c2e;}.cls-7{fill:#e34600;}.cls-8{fill:#f7c382;}</style></defs><title>Logo_Presidencia</title><path class="cls-1" d="M251.68,136h23c13.56,0,22.13,7.73,22.13,19.46v.17c0,13.06-10.49,19.88-23.3,19.88H261.91v18.72H251.68Zm22.13,30.28c7.73,0,12.56-4.33,12.56-10.4v-.17c0-6.82-4.91-10.4-12.56-10.4h-11.9v21Z"/><path class="cls-1" d="M305.25,150.34h10.06v9.9c2.75-6.58,7.82-11.07,15.56-10.74v10.65h-.58c-8.82,0-15,5.74-15,17.39v16.72H305.25Z"/><path class="cls-1" d="M336.36,172.46v-.16c0-12.56,8.9-22.88,21.46-22.88,14,0,21.05,11,21.05,23.63,0,.91-.08,1.83-.17,2.83H346.43C347.51,183,352.58,187,359.07,187c4.91,0,8.4-1.83,11.9-5.24l5.9,5.24a22.23,22.23,0,0,1-18,8.24c-12.72,0-22.54-9.24-22.54-22.8m32.53-3.24c-.67-6.49-4.49-11.56-11.15-11.56-6.16,0-10.48,4.74-11.4,11.56Z"/><path class="cls-1" d="M384.61,188.52l4.49-6.82c4.74,3.58,9.9,5.41,14.39,5.41,4.33,0,6.82-1.83,6.82-4.75v-.16c0-3.41-4.65-4.58-9.81-6.16-6.49-1.83-13.73-4.49-13.73-12.89V163c0-8.32,6.91-13.39,15.64-13.39a30.44,30.44,0,0,1,16.14,5l-4,7.15c-4.25-2.58-8.74-4.16-12.4-4.16-3.91,0-6.15,1.83-6.15,4.41v.17c0,3.16,4.74,4.49,9.9,6.16,6.4,2,13.64,4.9,13.64,12.81v.16c0,9.24-7.16,13.81-16.31,13.81a30.81,30.81,0,0,1-18.63-6.57"/><path class="cls-1" d="M429.11,134h10.82v9.57H429.11Zm.42,16.31H439.6v43.92H429.53Z"/><path class="cls-1" d="M449.66,172.38v-.16c0-14.56,9.9-22.8,20.38-22.8,7.24,0,11.81,3.66,15,7.74V133.53h10.06v60.73H485v-7.32c-3.25,4.57-7.82,8.24-15,8.24-10.31,0-20.38-8.24-20.38-22.8m35.52,0v-.16c0-8.49-6-14.06-12.73-14.06-6.9,0-12.64,5.32-12.64,14.06v.16c0,8.49,5.82,14.06,12.64,14.06s12.73-5.66,12.73-14.06"/><path class="cls-1" d="M504.4,172.46v-.16c0-12.56,8.9-22.88,21.46-22.88,14,0,21,11,21,23.63,0,.91-.09,1.83-.17,2.83H514.46C515.54,183,520.62,187,527.11,187c4.91,0,8.4-1.83,11.89-5.24l5.91,5.24a22.23,22.23,0,0,1-18,8.24c-12.73,0-22.54-9.24-22.54-22.8m32.52-3.24c-.66-6.49-4.49-11.56-11.14-11.56-6.16,0-10.49,4.74-11.4,11.56Z"/><path class="cls-1" d="M556.22,150.34h10.07v6.82c2.83-4.16,6.9-7.74,13.72-7.74,9.9,0,15.64,6.66,15.64,16.89v27.95H585.59v-25c0-6.82-3.41-10.73-9.4-10.73-5.83,0-9.9,4.08-9.9,10.9v24.79H556.22Z"/><path class="cls-1" d="M604.55,172.55v-.17a22.65,22.65,0,0,1,22.8-23c8.32,0,13.47,3.08,17.55,7.57l-6.24,6.74c-3.08-3.24-6.32-5.49-11.4-5.49-7.32,0-12.64,6.32-12.64,14v.17c0,7.82,5.41,14.14,13.14,14.14,4.75,0,8.24-2.24,11.4-5.49l6.07,6c-4.32,4.83-9.4,8.24-18,8.24a22.42,22.42,0,0,1-22.71-22.71"/><path class="cls-1" d="M653.8,134h10.81v9.57H653.8Zm.42,16.31h10.06v43.92H654.22Z"/><path class="cls-1" d="M703.46,194.26v-5.41a17.74,17.74,0,0,1-14.22,6.33c-8.32,0-15.64-4.75-15.64-13.56v-.17c0-9.73,7.57-14.39,17.8-14.39a37,37,0,0,1,12.15,1.83v-.83c0-6.08-3.83-9.41-10.82-9.41a30.62,30.62,0,0,0-12.56,2.75l-2.75-8.07a37.74,37.74,0,0,1,16.73-3.66c13,0,19.3,6.82,19.3,18.55v26Zm.25-18.38a28.68,28.68,0,0,0-10.06-1.75c-6.33,0-10.07,2.58-10.07,6.82v.17c0,4.16,3.74,6.48,8.49,6.48,6.65,0,11.64-3.74,11.64-9.23Z"/><path class="cls-1" d="M746.47,172.38v-.16c0-14.56,9.9-22.8,20.38-22.8,7.24,0,11.81,3.66,15,7.74V133.53h10.07v60.73H781.82v-7.32c-3.24,4.57-7.82,8.24-15,8.24-10.32,0-20.38-8.24-20.38-22.8m35.52,0v-.16c0-8.49-6-14.06-12.73-14.06-6.9,0-12.64,5.32-12.64,14.06v.16c0,8.49,5.82,14.06,12.64,14.06S782,180.78,782,172.38"/><path class="cls-1" d="M801.21,172.46v-.16c0-12.56,8.9-22.88,21.46-22.88,14,0,21.05,11,21.05,23.63,0,.91-.09,1.83-.17,2.83H811.27C812.35,183,817.43,187,823.92,187c4.9,0,8.4-1.83,11.89-5.24l5.91,5.24a22.23,22.23,0,0,1-18,8.24c-12.73,0-22.54-9.24-22.54-22.8m32.52-3.24c-.66-6.49-4.49-11.56-11.14-11.56-6.16,0-10.49,4.74-11.4,11.56Z"/><rect class="cls-1" x="877.74" y="133.53" width="10.07" height="60.73"/><path class="cls-1" d="M927,194.26v-5.41a17.74,17.74,0,0,1-14.22,6.33c-8.32,0-15.64-4.75-15.64-13.56v-.17c0-9.73,7.57-14.39,17.8-14.39a37.06,37.06,0,0,1,12.15,1.83v-.83c0-6.08-3.83-9.41-10.82-9.41a30.62,30.62,0,0,0-12.56,2.75l-2.75-8.07a37.74,37.74,0,0,1,16.73-3.66c13,0,19.3,6.82,19.3,18.55v26Zm.25-18.38a28.68,28.68,0,0,0-10.06-1.75c-6.33,0-10.07,2.58-10.07,6.82v.17c0,4.16,3.74,6.48,8.49,6.48,6.65,0,11.64-3.74,11.64-9.23Z"/><polygon class="cls-1" points="973.4 136.03 982.88 136.03 1014.08 176.29 1014.08 136.03 1024.14 136.03 1024.14 194.26 1015.58 194.26 983.47 152.83 983.47 194.26 973.4 194.26 973.4 136.03"/><path class="cls-1" d="M1064,194.26v-5.41a17.74,17.74,0,0,1-14.22,6.33c-8.32,0-15.64-4.75-15.64-13.56v-.17c0-9.73,7.57-14.39,17.8-14.39a37,37,0,0,1,12.14,1.83v-.83c0-6.08-3.82-9.41-10.81-9.41a30.62,30.62,0,0,0-12.56,2.75l-2.75-8.07a37.73,37.73,0,0,1,16.72-3.66c13,0,19.3,6.82,19.3,18.55v26Zm.25-18.38a28.74,28.74,0,0,0-10.07-1.75c-6.32,0-10.06,2.58-10.06,6.82v.17c0,4.16,3.74,6.48,8.48,6.48,6.66,0,11.65-3.74,11.65-9.23Z"/><path class="cls-1" d="M1082.71,172.55v-.17a22.65,22.65,0,0,1,22.79-23c8.32,0,13.48,3.08,17.55,7.57l-6.24,6.74c-3.07-3.24-6.32-5.49-11.39-5.49-7.32,0-12.65,6.32-12.65,14v.17c0,7.82,5.41,14.14,13.15,14.14,4.74,0,8.23-2.24,11.39-5.49l6.08,6c-4.33,4.83-9.41,8.24-18,8.24a22.42,22.42,0,0,1-22.71-22.71"/><path class="cls-1" d="M1132,134h10.82v9.57H1132Zm.42,16.31h10.06v43.92h-10.06Z"/><path class="cls-1" d="M1152.33,172.55v-.17c0-12.56,10-23,23.46-23s23.38,10.23,23.38,22.8v.16c0,12.48-10,22.88-23.54,22.88-13.4,0-23.3-10.23-23.3-22.71m36.77,0v-.17c0-7.74-5.57-14.14-13.47-14.14-8.07,0-13.23,6.32-13.23,14v.16c0,7.65,5.57,14.14,13.39,14.14,8.16,0,13.31-6.4,13.31-14m-8.73-41.43,9.15,4.08-10.23,9.56h-7.57Z"/><path class="cls-1" d="M1208.57,150.34h10.06v6.82c2.83-4.16,6.91-7.74,13.73-7.74,9.9,0,15.64,6.66,15.64,16.89v27.95h-10.07v-25c0-6.82-3.41-10.73-9.4-10.73-5.82,0-9.9,4.08-9.9,10.9v24.79h-10.06Z"/><path class="cls-2" d="M134.52,154.83H122.41a5.9,5.9,0,0,1-4.84-2,6.12,6.12,0,0,1-1.27-3,2.36,2.36,0,0,1,0-.28,11.29,11.29,0,0,1,.18-3.66,38.06,38.06,0,0,1,7.36-16.53A4.06,4.06,0,0,1,123,129a4.64,4.64,0,0,1-2.12-5c.45-2.63,2.94-5.29,3.38-5.75a15.8,15.8,0,0,1,11.14-5.15,14.24,14.24,0,0,1,13.48,8.14c5.26,10.24,6.5,18.68,7.5,25.47l.05.32a7.45,7.45,0,0,1-.12,3,1.12,1.12,0,0,1-.08.26A5.54,5.54,0,0,1,155,152.4a8,8,0,0,1-4.76,2.28,13.71,13.71,0,0,1-2.14.17l-.49,0h-9.42V172h54.06a94.31,94.31,0,0,0-4.43-28.9,78.35,78.35,0,0,0-12-23.54A57.82,57.82,0,0,0,158,103.73a43.53,43.53,0,0,0-43.28,0,57.79,57.79,0,0,0-17.76,15.79,78.6,78.6,0,0,0-12,23.54A94.61,94.61,0,0,0,80.47,172h54.05Z"/><path class="cls-3" d="M80.47,172A95.82,95.82,0,0,0,83,194.15c24.17-2.75,38.6-5.6,42.88-8.46,3-2.13,5.44-3.36,8.61-3.26V172Z"/><path class="cls-3" d="M138.16,182.84a19.62,19.62,0,0,1,5.52,1.87l.54,0c3.09-.14,5.73.81,9.37,2.13,1,.36,2.13.77,3.37,1.18.52.17,17.91,5.63,32.63,6.47a96.21,96.21,0,0,0,2.63-22.5H138.16Z"/><polyline class="cls-4" points="132.77 88.52 132.77 88.52 132.77 88.52"/><path class="cls-3" d="M160.18,206.46a4.85,4.85,0,0,1-1,1.4,5.37,5.37,0,0,1-3.63,1.41,5.81,5.81,0,0,1-.9,1.42,5.6,5.6,0,0,1-4.73,1.84,6.27,6.27,0,0,1-1,1.28,5,5,0,0,1-4.6,1.4,6.78,6.78,0,0,1-1.87,1.08,7.5,7.5,0,0,1-4.33.35V231a1.82,1.82,0,0,1-3.64,0V217.25a6.85,6.85,0,0,1-2.33.45,4.46,4.46,0,0,1-1-.09,4.37,4.37,0,0,1-2.56-1.57,6.93,6.93,0,0,1-4.83-.69,3.53,3.53,0,0,1-1.35-1.7,8.47,8.47,0,0,1-1.71-.36,4.77,4.77,0,0,1-3.18-2.66,12.45,12.45,0,0,1-1.25-.12c-1.31-.2-3-.76-3.67-2.29a3.55,3.55,0,0,1-.28-1c-7.7,4-16.5,7.93-20.45,9.67a72.33,72.33,0,0,0,5,7.5,57.69,57.69,0,0,0,17.76,15.8,46.27,46.27,0,0,0,9.56,4,4.18,4.18,0,0,1,1.42-1.54c3.1-2,9-.55,10.66-.07,1.67-.48,7.56-1.95,10.67.07a4.27,4.27,0,0,1,1.41,1.55,46.63,46.63,0,0,0,9.56-4,57.73,57.73,0,0,0,17.77-15.8,71.74,71.74,0,0,0,4.71-7c-4.38-1.81-14.06-6.08-20.28-10.9"/><path class="cls-2" d="M141.3,255.53a5.14,5.14,0,0,0,.16-1.24,5.38,5.38,0,0,0-.13-1.14c1.82-.37,4.77-1.24,6.41-3.24a5.31,5.31,0,0,0,1.18-4.07,4.2,4.2,0,0,0-1.91-3.17c-3.11-2-9-.55-10.67-.07-1.67-.48-7.56-1.95-10.66.07a4.24,4.24,0,0,0-1.92,3.17,5.31,5.31,0,0,0,1.18,4.07c1.65,2,4.63,2.89,6.45,3.25a5.22,5.22,0,0,0-.12,1.13,5.41,5.41,0,0,0,.14,1.21,20.63,20.63,0,0,1-11.77,5.73h0a8.91,8.91,0,0,0,1.8,2.16,23.06,23.06,0,0,0,11.15-5.68,4.11,4.11,0,0,0,.57.53c-.39,1.51-2,5.4-8.72,7.09a15.33,15.33,0,0,0,4,1.15c4.65-2.11,6.3-5.33,6.89-7.2a4.71,4.71,0,0,0,1,.1,5.23,5.23,0,0,0,1-.09c.58,1.87,2.24,5.08,6.89,7.18a15,15,0,0,0,4-1.14c-6.66-1.68-8.31-5.52-8.71-7.06a5,5,0,0,0,.59-.54,23,23,0,0,0,11.12,5.66,8.91,8.91,0,0,0,1.8-2.16,20.7,20.7,0,0,1-11.74-5.7"/><path class="cls-3" d="M145.69,244.69a1.78,1.78,0,0,1,.84,1.41,2.89,2.89,0,0,1-.65,2.28,7,7,0,0,1-3.11,1.9,4.47,4.47,0,0,0,.24-3.6,5.53,5.53,0,0,0-1.92-2.55c1.82-.18,3.61-.09,4.6.56"/><path class="cls-3" d="M131.92,247.52c.9-2.42,4.28-2.46,4.42-2.45h0a6.8,6.8,0,0,1,1.94.32,3.6,3.6,0,0,1,2.48,2.13c.4,1.09-.36,2.23-1,2.95a5.09,5.09,0,0,0-6.77,0c-.66-.71-1.45-1.85-1-3"/><path class="cls-3" d="M129.91,250.28a7,7,0,0,1-3.11-1.89,3,3,0,0,1-.65-2.28,1.81,1.81,0,0,1,.84-1.42,5.82,5.82,0,0,1,3-.64c.51,0,1,0,1.56.08a5.53,5.53,0,0,0-1.92,2.55,4.44,4.44,0,0,0,.24,3.6"/><path class="cls-3" d="M133.67,254.29a2.69,2.69,0,1,1,2.69,2.69,2.69,2.69,0,0,1-2.69-2.69"/><path class="cls-3" d="M151.24,263.39a23.13,23.13,0,0,1-11.12-5.66,5,5,0,0,1-.59.54c.4,1.54,2.05,5.38,8.71,7.06a11.61,11.61,0,0,0,3-1.94"/><path class="cls-3" d="M132.59,257.71a23.06,23.06,0,0,1-11.15,5.68,11.61,11.61,0,0,0,3,1.94c6.69-1.69,8.33-5.58,8.72-7.09a4.11,4.11,0,0,1-.57-.53"/><path class="cls-4" d="M204,186.36a1.15,1.15,0,0,0-1.21-1.3,15.72,15.72,0,0,0,.64-1.52,23.36,23.36,0,0,0,1.32-7.86,1.18,1.18,0,0,0-.51-1,1.21,1.21,0,0,0-.8-.19c.17-.48.32-1,.45-1.48a23.33,23.33,0,0,0,.54-8,1.19,1.19,0,0,0-.61-.92A1.18,1.18,0,0,0,203,164a15.93,15.93,0,0,0,.36-1.75,23.28,23.28,0,0,0-.25-8,1.16,1.16,0,0,0-.69-.86,1.2,1.2,0,0,0-.62-.07q.12-.62.18-1.23a23.34,23.34,0,0,0-.62-8,1.16,1.16,0,0,0-1.82-.66h0a15.4,15.4,0,0,0,.05-1.93,23.55,23.55,0,0,0-1.71-7.79,1.17,1.17,0,0,0-1.73-.54c0-.58-.07-1.18-.15-1.77a23.6,23.6,0,0,0-2.51-7.58,1.15,1.15,0,0,0-.91-.62,1.19,1.19,0,0,0-.87.26,16.49,16.49,0,0,0-.34-1.64,23.9,23.9,0,0,0-3.38-7.24,1.19,1.19,0,0,0-1-.51,1.14,1.14,0,0,0-.94.5,15.77,15.77,0,0,0-.71-1.91,23.82,23.82,0,0,0-4.51-6.6,1.15,1.15,0,0,0-1.09-.34,1.18,1.18,0,0,0-.7.45,18,18,0,0,0-1.05-1.86,23.22,23.22,0,0,0-5.4-5.75,1.14,1.14,0,0,0-1.75.41,13.33,13.33,0,0,0-6.36-4.5l1.46.11a17,17,0,0,0,5.57-.51,1.47,1.47,0,0,0-.36-2.87,12.54,12.54,0,0,1-6.49-1.79l-1-.54,8.22-1.23a1.47,1.47,0,0,0,0-2.9l-8.16-1.17c.94-.25,2-.58,3.18-1a16.69,16.69,0,0,0,4.94-2.61,1.46,1.46,0,0,0,.35-1.85,1.49,1.49,0,0,0-1.78-.66,12.39,12.39,0,0,1-6.68.83l-1.11-.11,7.12-4.26a1.47,1.47,0,0,0-1.12-2.68l-8,2c.78-.6,1.69-1.33,2.59-2.13a17.66,17.66,0,0,0,3.57-4.3,1.48,1.48,0,0,0-.4-1.85,1.47,1.47,0,0,0-1.89.07,12.34,12.34,0,0,1-5.85,3.33l-1.05.32,4.93-6.64a1.47,1.47,0,0,0-2.06-2.05l-6.64,5c.49-.86,1.05-1.88,1.58-3A17.16,17.16,0,0,0,157,56.8a1.46,1.46,0,0,0-1.07-1.55,1.48,1.48,0,0,0-1.72.79,12.39,12.39,0,0,1-4.13,5.32c-.27.22-.55.44-.83.69l2-8a1.46,1.46,0,0,0-2.68-1.11l-4.26,7.15c.13-1,.25-2.15.32-3.38a16.86,16.86,0,0,0-.53-5.56,1.46,1.46,0,0,0-2.86.36,12.47,12.47,0,0,1-1.78,6.5c-.16.3-.33.61-.5.94l-1.19-8.16a1.48,1.48,0,0,0-1.45-1.26h0a1.47,1.47,0,0,0-1.45,1.27l-1.14,8.12c-.25-.94-.57-2-1-3.14a17.42,17.42,0,0,0-2.6-5,1.48,1.48,0,0,0-1.86-.34,1.45,1.45,0,0,0-.65,1.77,12.49,12.49,0,0,1,.82,6.69c0,.36-.08.73-.11,1.13l-4.3-7.14a1.47,1.47,0,0,0-2.68,1.12l2,8c-.59-.77-1.31-1.66-2.1-2.55a17.25,17.25,0,0,0-4.3-3.57,1.47,1.47,0,0,0-1.78,2.28A12.41,12.41,0,0,1,118.6,64c.1.35.21.7.33,1.07l-6.69-5a1.47,1.47,0,0,0-2,2.06l5,6.62c-.85-.49-1.86-1-2.94-1.57a17.26,17.26,0,0,0-5.34-1.65,1.49,1.49,0,0,0-1.56,1.08,1.47,1.47,0,0,0,.8,1.71,12.43,12.43,0,0,1,5.31,4.14c.23.28.45.56.7.85l-8.05-2A1.46,1.46,0,0,0,103,74.06l7.14,4.24c-1-.12-2.13-.25-3.34-.32a17.33,17.33,0,0,0-5.57.53,1.47,1.47,0,0,0-1,1.59,1.48,1.48,0,0,0,1.39,1.28,12.33,12.33,0,0,1,6.49,1.78l1,.51-8.2,1.2a1.47,1.47,0,0,0,0,2.9l8.26,1.2c-1,.26-2.08.59-3.24,1a17.29,17.29,0,0,0-4.94,2.62,1.47,1.47,0,0,0,1.44,2.51,14,14,0,0,1,4.35-1A32.56,32.56,0,0,0,103,97.7a14.26,14.26,0,0,0-.92,1.28,1.16,1.16,0,0,0-1.7-.32,23.78,23.78,0,0,0-5.51,5.82,16.9,16.9,0,0,0-1,1.84,1.18,1.18,0,0,0-.78-.5,1.14,1.14,0,0,0-1,.35,23.61,23.61,0,0,0-4.51,6.6,19,19,0,0,0-.68,1.81,1.19,1.19,0,0,0-.75-.32,1.17,1.17,0,0,0-1,.47,23.62,23.62,0,0,0-3.68,7.09,15.56,15.56,0,0,0-.45,1.85,1.17,1.17,0,0,0-1.9.23,23.68,23.68,0,0,0-2.58,7.55,15.8,15.8,0,0,0-.16,1.81,1.13,1.13,0,0,0-1-.23,1.11,1.11,0,0,0-.82.72,23.44,23.44,0,0,0-1.61,7.82,14.88,14.88,0,0,0,.07,1.77,1.15,1.15,0,0,0-1-.09,1.16,1.16,0,0,0-.73.82,23.28,23.28,0,0,0-.62,8c0,.46.11.91.2,1.36a1.27,1.27,0,0,0-.51.08,1.16,1.16,0,0,0-.69.86,23.28,23.28,0,0,0-.25,8,15.45,15.45,0,0,0,.38,1.82,1.12,1.12,0,0,0-.47.11,1.14,1.14,0,0,0-.63.9,23.27,23.27,0,0,0,.25,8,15.65,15.65,0,0,0,.41,1.53,1.2,1.2,0,0,0-.76.17,1.16,1.16,0,0,0-.55,1,23.52,23.52,0,0,0,1.1,7.9,17.82,17.82,0,0,0,.79,2l-.14,0a1.18,1.18,0,0,0-1.08.26,1.15,1.15,0,0,0-.36,1,23.36,23.36,0,0,0,2.46,7.59,13.3,13.3,0,0,0,.72,1.21A1,1,0,0,0,71,196a1.17,1.17,0,0,0-.29,1.07,23.57,23.57,0,0,0,3,7.39,16.11,16.11,0,0,0,1,1.4,1.16,1.16,0,0,0-1,1.55,23.64,23.64,0,0,0,3.86,7,15.32,15.32,0,0,0,1.07,1.19,1.14,1.14,0,0,0-.67.53,1.15,1.15,0,0,0,0,1.11,23.69,23.69,0,0,0,4.65,6.5c.38.36.77.71,1.17,1a1.17,1.17,0,0,0-.6.58,1.16,1.16,0,0,0,.09,1.11,23.87,23.87,0,0,0,5.31,6,17.73,17.73,0,0,0,1.82,1.24l-.25.08a1.16,1.16,0,0,0-.45,1.89,27.55,27.55,0,0,0,6.19,4.95,16.34,16.34,0,0,0,5.1,1.93,11.4,11.4,0,0,0,4.11.05l.23-.05a61.55,61.55,0,0,0,11.37,6.33,56.58,56.58,0,0,0,10.08,3.19c.71.15,1.39.27,2,.39a9.07,9.07,0,0,1-3.87-2.53,4.81,4.81,0,0,1-.45-.66,54.23,54.23,0,0,1-6.94-2.39,59.13,59.13,0,0,1-10.88-6.05.4.4,0,0,1,0-.13,11.78,11.78,0,0,0-.39-3.53,50.4,50.4,0,0,0,7.16,5,48.71,48.71,0,0,0,10.26,4.28c0-.2,0-.41,0-.61a4.57,4.57,0,0,1,.5-1.63,46.27,46.27,0,0,1-9.56-4,57.69,57.69,0,0,1-17.76-15.8,72.33,72.33,0,0,1-5-7.5c4-1.74,12.75-5.71,20.45-9.67a3.65,3.65,0,0,0,.28,1c.66,1.53,2.36,2.09,3.67,2.29a12.45,12.45,0,0,0,1.25.12,4.77,4.77,0,0,0,3.18,2.66,8.47,8.47,0,0,0,1.71.36,3.53,3.53,0,0,0,1.35,1.7,6.93,6.93,0,0,0,4.83.69,4.37,4.37,0,0,0,2.56,1.57,4.46,4.46,0,0,0,1,.09,6.85,6.85,0,0,0,2.33-.45V231a1.82,1.82,0,0,0,3.64,0V216.64a7.5,7.5,0,0,0,4.33-.35,6.78,6.78,0,0,0,1.87-1.08,5,5,0,0,0,4.6-1.4,6.27,6.27,0,0,0,1-1.28,5.6,5.6,0,0,0,4.73-1.84,5.81,5.81,0,0,0,.9-1.42,5.35,5.35,0,0,0,3.63-1.42,4.68,4.68,0,0,0,1-1.39c6.22,4.82,15.9,9.09,20.28,10.89a70.71,70.71,0,0,1-4.71,7A57.73,57.73,0,0,1,158,240.19a46.63,46.63,0,0,1-9.56,4,4.45,4.45,0,0,1,.5,1.62c0,.2,0,.41,0,.61a48.05,48.05,0,0,0,10.27-4.28,51.59,51.59,0,0,0,7.23-5.07,11.38,11.38,0,0,0-.41,3.56,1,1,0,0,0,0,.17,49.38,49.38,0,0,1-8,4.85,52.32,52.32,0,0,1-9.53,3.57l-.41.11c-.12.18-.25.37-.39.55a9.11,9.11,0,0,1-4,2.56,50.61,50.61,0,0,0,5.36-1.13,54.67,54.67,0,0,0,9.94-3.74,50.52,50.52,0,0,0,8.35-5.08l.17.06a11.13,11.13,0,0,0,4.14-.05,16.43,16.43,0,0,0,5.1-1.93,27.55,27.55,0,0,0,6.19-4.95,1.16,1.16,0,0,0,.29-1.07,1.19,1.19,0,0,0-.74-.83l-.18-.05a18.73,18.73,0,0,0,1.84-1.26,23.89,23.89,0,0,0,5.32-6,1.18,1.18,0,0,0,.08-1.11,1.15,1.15,0,0,0-.59-.58c.4-.32.79-.67,1.16-1a23.71,23.71,0,0,0,4.66-6.5,1.15,1.15,0,0,0,0-1.11,1.13,1.13,0,0,0-.83-.56c.4-.41.8-.84,1.17-1.29a23.77,23.77,0,0,0,3.86-7,1.18,1.18,0,0,0-.13-1.05,1.2,1.2,0,0,0-.92-.51h0a16,16,0,0,0,1-1.32A23.47,23.47,0,0,0,202.1,197a1.14,1.14,0,0,0-.27-1.07,1.15,1.15,0,0,0-.94-.37,17.18,17.18,0,0,0,.89-1.57,23.52,23.52,0,0,0,2.2-7.67m-1.37-9.09a.06.06,0,0,1,0,.06,20.26,20.26,0,0,1-1.1,5.43,13.76,13.76,0,0,1-2.41,4.25,10.63,10.63,0,0,1-2.89,2.4h0a.05.05,0,0,1-.05,0,12.67,12.67,0,0,1-2.34-7.95,17.86,17.86,0,0,1,.32-3,.08.08,0,0,1,.05-.05l.06,0a15.34,15.34,0,0,1,2.23,4.11.87.87,0,0,0,.77.58.84.84,0,0,0,.83-.49,13.94,13.94,0,0,1,4.46-5.36.09.09,0,0,1,.07,0m-.22-10.4a.06.06,0,0,1,.1,0,20.52,20.52,0,0,1-.55,5.52,13.68,13.68,0,0,1-2,4.47,10.52,10.52,0,0,1-2.64,2.66h0l0,0c-2.83-3.2-3.1-8-3-10.49a.05.05,0,0,1,0-.06,0,0,0,0,1,.06,0,18.19,18.19,0,0,1,2.55,3.7.87.87,0,0,0,1.59-.09,13.76,13.76,0,0,1,3.91-5.76m-1.13-10.56a0,0,0,0,1,.06,0s0,0,.05,0a20.5,20.5,0,0,1,0,5.54,13.65,13.65,0,0,1-1.54,4.64,10.46,10.46,0,0,1-2.4,2.95h-.08c-2.79-2.32-3.64-7.33-3.89-10.11a.06.06,0,0,1,0-.06.06.06,0,0,1,.07,0,18.4,18.4,0,0,1,2.82,3.36.87.87,0,0,0,.86.4.88.88,0,0,0,.71-.64,13.85,13.85,0,0,1,3.32-6.13m-1.66-10s0,0,.06,0a.08.08,0,0,1,.05.05,20.26,20.26,0,0,1,.25,5.54,13.51,13.51,0,0,1-1.32,4.7,10.33,10.33,0,0,1-2.22,3,.05.05,0,0,1,0,0l0,0a13.37,13.37,0,0,1-4-7,21.21,21.21,0,0,1-.51-2.94.07.07,0,0,1,0-.06.06.06,0,0,1,.07,0,17.88,17.88,0,0,1,3.07,3.31.88.88,0,0,0,.89.35.86.86,0,0,0,.67-.67,13.81,13.81,0,0,1,3-6.27m-80.15.65c0-.14,0-.27.07-.41a35.62,35.62,0,0,1,6.11-14.36,23.11,23.11,0,0,1,3.59-3.9l.65-.52a1.65,1.65,0,0,0-2-2.6c-.07,0-.32.22-.7.54-1.53,1.07-2.41.72-2.64.59a1.61,1.61,0,0,1-.57-1.77c.26-1.49,1.94-3.48,2.57-4.12l.08-.08c3.39-4,8.79-4.09,8.84-4.09h.16a10.78,10.78,0,0,1,3.8.56,11.32,11.32,0,0,1,6.65,5.89A63.34,63.34,0,0,1,151,135.44a20.84,20.84,0,0,1-5.42-3.05,1.65,1.65,0,0,0-2.1,2.54,22.69,22.69,0,0,0,8.4,4.18c.32,1.51.61,3.1.91,4.95a23.29,23.29,0,0,0-4.54-1.56,22.06,22.06,0,0,1-2.55-.77,26.44,26.44,0,0,1-5.74-3.31,1.64,1.64,0,0,0-2,2.58,29.42,29.42,0,0,0,6.55,3.79,27.69,27.69,0,0,0,2.94.9c3.91,1,5.68,1.82,5.76,3.77a2.43,2.43,0,0,1-.49.8c-1.24,1.36-4,1.5-4.94,1.44h-3.79a15.6,15.6,0,0,1-7.72-2.26c-8.32-5.36-12.1-4.52-16.77-2.5m14.18,4.76H122.41a2.92,2.92,0,0,1-2.41-.86,2.65,2.65,0,0,1-.28-.43c4.7-2.13,7.18-2.89,13.91,1.29M138.16,172V154.84h9.91a13.71,13.71,0,0,0,2.14-.17A8,8,0,0,0,155,152.4a5.54,5.54,0,0,0,1.23-2.14,1.12,1.12,0,0,0,.08-.26,7.45,7.45,0,0,0,.12-3l-.05-.32c-1-6.79-2.24-15.23-7.5-25.47a14.26,14.26,0,0,0-13.48-8.14,15.8,15.8,0,0,0-11.14,5.15c-.44.46-2.93,3.12-3.38,5.75a4.65,4.65,0,0,0,2.12,5,4.06,4.06,0,0,0,.83.37,38.06,38.06,0,0,0-7.36,16.53,11.33,11.33,0,0,0-.18,3.67c0,.08,0,.18,0,.27a6.12,6.12,0,0,0,1.27,3,5.9,5.9,0,0,0,4.84,2h12.11v27.59c-3.17-.1-5.59,1.13-8.61,3.26-4.28,2.86-18.71,5.71-42.88,8.46A95.82,95.82,0,0,1,80.47,172a94.66,94.66,0,0,1,4.42-28.9,78.6,78.6,0,0,1,12-23.54,57.79,57.79,0,0,1,17.76-15.79,43.53,43.53,0,0,1,43.28,0,57.82,57.82,0,0,1,17.77,15.79,78.35,78.35,0,0,1,12,23.54,94.36,94.36,0,0,1,4.43,28.9,96.21,96.21,0,0,1-2.63,22.5c-14.72-.84-32.11-6.3-32.63-6.46-1.24-.42-2.37-.83-3.37-1.19-3.64-1.32-6.28-2.27-9.37-2.13l-.54,0a20,20,0,0,0-5.52-1.87ZM161,94.58a21.5,21.5,0,0,1-3.84,1.12,16,16,0,0,1-2.82.27,9.19,9.19,0,0,1-5.41-1.56.07.07,0,0,1,0-.06l0,0a11.92,11.92,0,0,1,3.19-1.26,11.58,11.58,0,0,1,4.58-.14A13.7,13.7,0,0,1,161,94.47a.05.05,0,0,1,0,0,.07.07,0,0,1,0,.06m2.11,6s0,0,0,0a.1.1,0,0,1,0,0,10,10,0,0,1-2.78.52h-.41a11.78,11.78,0,0,1-7.3-2.73.11.11,0,0,1,0-.06.07.07,0,0,1,0-.05,13,13,0,0,1,3.15-.59,8.86,8.86,0,0,1,7.34,2.81m-11.56-9.28a17.43,17.43,0,0,1-5.25,1.39.86.86,0,0,0-.74.65.88.88,0,0,0,.35.92,18.08,18.08,0,0,1,3.44,3.19.06.06,0,0,1,0,.07.06.06,0,0,1-.06,0h0a13.65,13.65,0,0,1-10.16-4.63.07.07,0,0,1,0-.09,8.21,8.21,0,0,1,2.78-1.69c2.58-1,5.9-1,9.62.05a.07.07,0,0,1,0,0,.06.06,0,0,1,0,.06M140.75,89.5a15.2,15.2,0,0,1-4.93,2.39.87.87,0,0,0,0,1.64,15.24,15.24,0,0,1,3.9,2.28,0,0,0,0,1,0,.06.08.08,0,0,1-.05,0c-.61,0-1.34.1-2.15.1a14.4,14.4,0,0,1-8.65-2.47.05.05,0,0,1,0-.08,8.18,8.18,0,0,1,2.37-2.21c2.34-1.48,5.64-2.13,9.53-1.87,0,0,.05,0,.05,0a.07.07,0,0,1,0,.07m-11.1.18a11.89,11.89,0,0,1-4.45,3.4.85.85,0,0,0-.48.89.88.88,0,0,0,.7.73,18.6,18.6,0,0,1,4.31,1.45.06.06,0,0,1,0,.06.07.07,0,0,1,0,.05,21.38,21.38,0,0,1-2.86.72,17.45,17.45,0,0,1-3,.27,12.22,12.22,0,0,1-5.17-1.06.05.05,0,0,1,0-.07,8,8,0,0,1,1.82-2.66c2-2,5.15-3.32,9.1-3.88a.06.06,0,0,1,.06,0,0,0,0,0,1,0,.07m-14.29,6.81a.89.89,0,0,0-.25,1,.87.87,0,0,0,.81.56h0a16.82,16.82,0,0,1,2.21.16,14.71,14.71,0,0,1,2.33.48.07.07,0,0,1,0,.06.05.05,0,0,1,0,.05,21.94,21.94,0,0,1-2.76,1.17,16,16,0,0,1-5.21.95,11.28,11.28,0,0,1-3.07-.41.08.08,0,0,1,0-.07c.37-1.83,2.06-6.34,9.8-9,0,0,0,0,.06,0a.06.06,0,0,1,0,.07,14,14,0,0,1-3.9,5m78.92,46.25a13.69,13.69,0,0,1,2.14-6.62.05.05,0,0,1,.05,0,0,0,0,0,1,.05,0,20,20,0,0,1,1,5.46,13.61,13.61,0,0,1-.66,4.84,10.54,10.54,0,0,1-1.78,3.29l0,0h0a12.87,12.87,0,0,1-5-6.47,20,20,0,0,1-.86-2.82s0,0,0-.06h.07a18.22,18.22,0,0,1,3.55,2.89.87.87,0,0,0,.92.23.89.89,0,0,0,.58-.76m-3.45-9.58a13.73,13.73,0,0,1,1.44-6.8,0,0,0,0,1,.06,0,.05.05,0,0,1,0,0,20,20,0,0,1,1.57,5.33,13.44,13.44,0,0,1-.14,4.88,10.36,10.36,0,0,1-1.44,3.45.05.05,0,0,1-.05,0h0a12.91,12.91,0,0,1-5.67-5.92,20,20,0,0,1-1.15-2.72s0,0,0-.06a0,0,0,0,1,.06,0,18.67,18.67,0,0,1,3.83,2.51.86.86,0,0,0,.94.14.87.87,0,0,0,.5-.82M186,125h0a.86.86,0,0,0,.42-.88,13.66,13.66,0,0,1,.63-6.91.07.07,0,0,1,.05,0,.09.09,0,0,1,.06,0,20.88,20.88,0,0,1,2.19,5.12,13.65,13.65,0,0,1,.43,4.86,10.48,10.48,0,0,1-1,3.59.05.05,0,0,1-.05,0h0a12.76,12.76,0,0,1-6.5-5.29,16.92,16.92,0,0,1-1.42-2.66.06.06,0,0,1,0-.07l.06,0A13.84,13.84,0,0,1,185,125a.88.88,0,0,0,1,.07m-6.49-8.3a.87.87,0,0,0,1.33-1,15.23,15.23,0,0,1-.44-6.85,0,0,0,0,1,0,0,.06.06,0,0,1,.07,0,20.41,20.41,0,0,1,2.92,4.62,13.49,13.49,0,0,1,1.21,4.73,10.23,10.23,0,0,1-.42,3.7.07.07,0,0,1-.06,0h0a13.18,13.18,0,0,1-7.1-4.18,20.23,20.23,0,0,1-2-2.49.06.06,0,0,1,0-.06.06.06,0,0,1,.06,0,9.91,9.91,0,0,1,4.38,1.51m-6.47-7.4a.87.87,0,0,0,1.08-1.21,13.69,13.69,0,0,1-1.6-6.74.07.07,0,0,1,0,0s.05,0,.06,0a20.05,20.05,0,0,1,3.61,4.1,14.34,14.34,0,0,1,2,4.5,11.19,11.19,0,0,1,.24,3.81.06.06,0,0,1-.06,0h-.15a12.51,12.51,0,0,1-7.27-2.91,21.62,21.62,0,0,1-2.49-2.24s0,0,0-.06a.07.07,0,0,1,0,0h.33a13.24,13.24,0,0,1,4.21.78m-2.57-6.74a11.15,11.15,0,0,1,.75,4.22.06.06,0,0,1,0,.06h-.46c-3.56,0-7.69-2.38-9.9-3.85a0,0,0,0,1,0-.06.07.07,0,0,1,0,0,11.85,11.85,0,0,1,4.42.07.87.87,0,0,0,.88-1.38,18,18,0,0,1-2.76-5.18.07.07,0,0,1,.08-.08,10.67,10.67,0,0,1,7,6.24M106,92.1l.51-.19a46.72,46.72,0,0,1,5.08-1.44,13.46,13.46,0,0,0,4-1.58.59.59,0,0,0,.27-.62.59.59,0,0,0-.5-.46l-10.24-1.49,10.24-1.51a.59.59,0,0,0,.51-.58.6.6,0,0,0-.51-.59,19.2,19.2,0,0,1-4.53-1.38c-.67-.3-1.27-.63-1.8-.91A14.71,14.71,0,0,0,106.1,80l.54,0a47.27,47.27,0,0,1,5.25.62,13.88,13.88,0,0,0,4.3.08.61.61,0,0,0,.48-.48.6.6,0,0,0-.28-.62l-8.9-5.28,10.05,2.52a.6.6,0,0,0,.69-.35.59.59,0,0,0-.24-.73,19.78,19.78,0,0,1-3.66-3c-.5-.53-.9-1-1.31-1.54a15.34,15.34,0,0,0-2.2-2.35l.49.23a47.52,47.52,0,0,1,4.61,2.58,13.79,13.79,0,0,0,3.94,1.72.59.59,0,0,0,.61-.93l-6.21-8.27,8.33,6.16a.6.6,0,0,0,.77-.06.59.59,0,0,0,.06-.77,19.25,19.25,0,0,1-2.22-4.18c-.26-.69-.45-1.32-.63-1.93a15.84,15.84,0,0,0-1.13-3c.13.13.25.26.37.4A47.22,47.22,0,0,1,123.08,65a13.59,13.59,0,0,0,3,3.1.6.6,0,0,0,.68,0,.59.59,0,0,0,.23-.64l-2.57-10,5.35,8.88a.59.59,0,0,0,1.08-.45,19.16,19.16,0,0,1-.45-4.72c0-.73.09-1.38.16-2a16,16,0,0,0,.11-3.22c.07.17.13.34.19.51a48,48,0,0,1,1.42,5.09,13.7,13.7,0,0,0,1.57,4,.59.59,0,0,0,.62.27.59.59,0,0,0,.46-.5l1.44-10.15,1.48,10.16a.59.59,0,0,0,.59.5.58.58,0,0,0,.58-.5,19.61,19.61,0,0,1,1.38-4.53c.3-.67.61-1.24.91-1.8A16.35,16.35,0,0,0,142.62,56c0,.18,0,.36,0,.54a47.27,47.27,0,0,1-.62,5.25,14.05,14.05,0,0,0-.07,4.3.59.59,0,0,0,1.09.2l5.29-8.88-2.52,10a.59.59,0,0,0,1.08.45,19.1,19.1,0,0,1,3-3.66c.52-.5,1-.9,1.53-1.31a16.41,16.41,0,0,0,2.36-2.2c-.08.16-.16.33-.23.49a52.66,52.66,0,0,1-2.58,4.61,14,14,0,0,0-1.72,3.94.6.6,0,0,0,.25.63.62.62,0,0,0,.68,0l8.28-6.19-6.16,8.31a.58.58,0,0,0,0,.77.59.59,0,0,0,.77,0,20.11,20.11,0,0,1,4.18-2.22c.69-.26,1.31-.44,1.92-.62a16.44,16.44,0,0,0,3-1.14l-.4.37A47.66,47.66,0,0,1,157.66,73a14.08,14.08,0,0,0-3.1,3,.6.6,0,0,0,.63.92l10-2.55-8.87,5.32a.59.59,0,0,0,.45,1.08,19.73,19.73,0,0,1,4.71-.45c.74,0,1.39.09,2,.16a16.13,16.13,0,0,0,3.23.11l-.51.19a46.86,46.86,0,0,1-5.09,1.42,14.07,14.07,0,0,0-4,1.57.61.61,0,0,0-.26.63.6.6,0,0,0,.5.46l10.22,1.47-10.23,1.52a.61.61,0,0,0-.51.59.59.59,0,0,0,.51.58,20.07,20.07,0,0,1,4.52,1.39c.67.31,1.24.62,1.8.93a16.57,16.57,0,0,0,2.93,1.33l-.54,0a52.06,52.06,0,0,1-5.25-.63l-.27-.05a14.59,14.59,0,0,0-5.65-1.25.07.07,0,0,1,0,0,1.17,1.17,0,0,0-.76-.84,24.11,24.11,0,0,0-7.76-1.48,15.59,15.59,0,0,0-2.5.17.87.87,0,0,0-.1-.31,1.16,1.16,0,0,0-.89-.64,24.32,24.32,0,0,0-7.9.11,14.79,14.79,0,0,0-2.62.75,1.18,1.18,0,0,0-.31-.68,1.15,1.15,0,0,0-1-.37,24.29,24.29,0,0,0-7.68,1.78,16.06,16.06,0,0,0-1.66.83,1.17,1.17,0,0,0-.42-.78,1.19,1.19,0,0,0-1.06-.22A23.77,23.77,0,0,0,113,92.24l-.12.09c-.55,0-1.08,0-1.6,0s-1.86-.14-2-.16a15.34,15.34,0,0,0-3.22-.1m2.76,3a0,0,0,0,1,.06,0,.07.07,0,0,1,0,.06,13.69,13.69,0,0,1-2.25,6.57.87.87,0,0,0,.9,1.32,18.33,18.33,0,0,1,4.45-.27.07.07,0,0,1,.06,0,.06.06,0,0,1,0,.07c-1.93,1.53-5.71,4.05-9.75,4.05h-.44a.06.06,0,0,1,0-.06c-.11-1.94.36-7,7-11.76M94.68,110a13.44,13.44,0,0,1,1.95-4.48,20.38,20.38,0,0,1,3.71-4.19.08.08,0,0,1,.07,0,.06.06,0,0,1,0,.06,13.59,13.59,0,0,1-1.6,6.75.85.85,0,0,0,.11,1,.86.86,0,0,0,.93.26,17.3,17.3,0,0,1,4.34-.79.08.08,0,0,1,.06,0,.07.07,0,0,1,0,.07,27.44,27.44,0,0,1-2.55,2.24c-1.76,1.36-4.35,2.94-6.84,2.94h-.3a.06.06,0,0,1-.06,0,10.23,10.23,0,0,1,.17-3.79M92.4,108.8a0,0,0,0,1,.06,0,0,0,0,0,1,0,0,13.56,13.56,0,0,1-.5,6.93.86.86,0,0,0,1.31,1,10.08,10.08,0,0,1,4.32-1.5.06.06,0,0,1,.06,0,.09.09,0,0,1,0,.07c-1.57,2.19-4.81,6-9,6.67h0a.06.06,0,0,1-.06,0c-.61-1.85-1.46-6.85,3.78-13.15m-9,13.52a20.34,20.34,0,0,1,2.41-5,.07.07,0,0,1,.06,0,.07.07,0,0,1,0,0,13.75,13.75,0,0,1,.34,7,.86.86,0,0,0,1.45.78A8.44,8.44,0,0,1,91.9,123l.06,0a.08.08,0,0,1,0,.07,19.28,19.28,0,0,1-1.69,2.82,12.54,12.54,0,0,1-6.58,4.94h0a.05.05,0,0,1,0,0,10.45,10.45,0,0,1-.88-3.64,13.74,13.74,0,0,1,.63-4.84m-4.87,9.33a20.2,20.2,0,0,1,1.62-5.31.05.05,0,0,1,.06,0h0a.05.05,0,0,1,0,0,13.65,13.65,0,0,1,1.38,6.83.86.86,0,0,0,1.43.69,18.18,18.18,0,0,1,4.06-2.57h.06a.07.07,0,0,1,0,.06,12.93,12.93,0,0,1-.94,2.54A13.2,13.2,0,0,1,80.07,140h0a.05.05,0,0,1,0,0,10.19,10.19,0,0,1-1.4-3.45,13.7,13.7,0,0,1-.1-4.88M75.86,136a.07.07,0,0,1,0,0s0,0,.06,0a13.78,13.78,0,0,1,2.23,6.6.86.86,0,0,0,1.52.48,15.87,15.87,0,0,1,3.7-3.06h.06a.09.09,0,0,1,0,.06,14.23,14.23,0,0,1-.6,2.72,12.41,12.41,0,0,1-5.36,6.81h0s0,0,0,0a10.3,10.3,0,0,1-1.84-3.26,13.75,13.75,0,0,1-.72-4.83,20.34,20.34,0,0,1,.94-5.48m-3,10.14s0,0,0,0a.07.07,0,0,1,.06,0,13.87,13.87,0,0,1,3,6.27.86.86,0,0,0,1.56.32,18,18,0,0,1,3.2-3.41h.06a.07.07,0,0,1,0,.05,15.27,15.27,0,0,1-.38,2.7,13.71,13.71,0,0,1-4.27,7.35h-.08a10.35,10.35,0,0,1-2.2-3,13.63,13.63,0,0,1-1.32-4.7,20.73,20.73,0,0,1,.25-5.55m-1.53,10.18s0,0,0,0a0,0,0,0,1,.06,0,13.85,13.85,0,0,1,3.32,6.13.87.87,0,0,0,1.62.15,12.69,12.69,0,0,1,2.7-3.55,0,0,0,0,1,.06,0s0,0,0,.05a20.35,20.35,0,0,1-.25,3,12.41,12.41,0,0,1-3.61,7.3l0,0,0,0a10.48,10.48,0,0,1-2.36-2.91,13.65,13.65,0,0,1-1.54-4.64,20.5,20.5,0,0,1,0-5.54M70.5,167a.06.06,0,0,1,.1,0c.22.2.44.42.65.65a14.06,14.06,0,0,1,3,5.27.87.87,0,0,0,1.68-.13h0a7.47,7.47,0,0,1,2.21-3.84s0,0,.06,0a0,0,0,0,1,0,0,15.88,15.88,0,0,1,0,5.05,10.27,10.27,0,0,1-3,5.86l0,0h0c-1.6-1.15-5.26-4.71-4.75-12.86m-.42,10.37a.06.06,0,0,1,.07,0c.24.18.48.37.71.57a14.18,14.18,0,0,1,3.6,4.93.84.84,0,0,0,.78.51h0a.87.87,0,0,0,.79-.53,17,17,0,0,1,2.46-4.09s0,0,.06,0,0,0,.05,0a13.38,13.38,0,0,1-2.45,10.89l0,0h0c-1.7-1-5.68-4.16-6-12.26a.07.07,0,0,1,0-.06m.54,10.8s0,0,0-.06a.06.06,0,0,1,.07,0,13.85,13.85,0,0,1,5.2,4.68.86.86,0,0,0,1.56-.3h0A17.68,17.68,0,0,1,79.23,188a.07.07,0,0,1,.06,0,.05.05,0,0,1,0,0,12.84,12.84,0,0,1,.94,2.76,11.59,11.59,0,0,1-1.45,8.48.05.05,0,0,1,0,0h0a10.57,10.57,0,0,1-3.24-2,13.82,13.82,0,0,1-3-3.86,20.84,20.84,0,0,1-1.88-5.22m2.45,10a.07.07,0,0,1,0-.06.06.06,0,0,1,.07,0c.27.12.55.24.82.38a14.25,14.25,0,0,1,4.72,3.91.86.86,0,0,0,1.53-.41,17.75,17.75,0,0,1,1.33-4.47.07.07,0,0,1,.06,0,.07.07,0,0,1,0,0c1,2.22,2.42,6.61.41,11.06a.07.07,0,0,1-.06,0h0c-1.9-.53-6.57-2.63-8.93-10.43m6,14.84a20.62,20.62,0,0,1-2.84-4.77.06.06,0,0,1,0-.07s0,0,.06,0c.29.09.58.18.86.29a14.26,14.26,0,0,1,5.14,3.35.86.86,0,0,0,.93.19.88.88,0,0,0,.55-.78,17.66,17.66,0,0,1,.78-4.53.07.07,0,0,1,0,0,.06.06,0,0,1,.06,0A18.37,18.37,0,0,1,86,209.36a12.62,12.62,0,0,1,.45,8.22.06.06,0,0,1-.06,0h0a10.6,10.6,0,0,1-3.53-1.33,14,14,0,0,1-3.7-3.24m1.47,4.75a.06.06,0,0,1,0-.06.09.09,0,0,1,.06,0A14.15,14.15,0,0,1,87,220.63a.85.85,0,0,0,1,.08.86.86,0,0,0,.44-.86,15.87,15.87,0,0,1,.23-4.48s0,0,0-.05l.06,0a20,20,0,0,1,1.52,2.58,13.37,13.37,0,0,1,1.47,7.95.07.07,0,0,1-.06.05h0A10.72,10.72,0,0,1,88,225a13.91,13.91,0,0,1-4.05-2.8,20.47,20.47,0,0,1-3.39-4.41m19.91,17.33a16.44,16.44,0,0,1-1.06-4.39.07.07,0,0,1,0-.06.06.06,0,0,1,.07,0c2,1.69,5.37,5.22,5.16,9.87a0,0,0,0,1-.05.05,7.31,7.31,0,0,1-1.36.11,10.37,10.37,0,0,1-2-.21,18.73,18.73,0,0,1-8.85-5.07.06.06,0,0,1,0-.07.1.1,0,0,1,.05,0,14.18,14.18,0,0,1,7,.94.89.89,0,0,0,.93-.2.84.84,0,0,0,.18-.94m-7.85-6.23a.86.86,0,0,0,1,0,.88.88,0,0,0,.34-.92,14,14,0,0,1-.29-4.44.08.08,0,0,1,0,0,.07.07,0,0,1,.06,0c1.65,2,4.38,6,4.12,10.15t-.06.06h-.4a10.63,10.63,0,0,1-3.33-.54,14.07,14.07,0,0,1-4.33-2.36,20.64,20.64,0,0,1-3.83-4,.06.06,0,0,1,0-.07.06.06,0,0,1,.06,0,14.19,14.19,0,0,1,6.65,2.25m33.82-22.69-.79.55a8.15,8.15,0,0,0-3.42,4.09,6.11,6.11,0,0,1-.68-.18c-1.42-.46-1.49-1.18-1.51-1.44,0-.74.34-1.39,1.41-2.42,1.27-1.22,2.32-1.81,3.23-1.81a2,2,0,0,1,.93.23,1.46,1.46,0,0,1,.81.71.48.48,0,0,1,0,.27m1.78,7.13a4.82,4.82,0,0,1-2.86-.25,1,1,0,0,1-.43-.82c-.12-1.21,1.44-2.49,2.37-3.15,1.47-1,2.48-1.61,3.3-1.61a1.66,1.66,0,0,1,1.14.46c.3.25.45.49.44.68a2.48,2.48,0,0,1-.95,1.31,8.29,8.29,0,0,0-3,3.38m7.33.25c-.55.43-2.44,1.61-3.79,1.34a1.59,1.59,0,0,1-.87-.49,7.59,7.59,0,0,1,3.24-2.89c1.63-1,2.33-.4,2.35-.39.48.47.45.74.44.83-.05.57-.88,1.28-1.26,1.52l-.11.08m-15.42-9.48c-.22.19-.43.39-.67.62a7.24,7.24,0,0,0-2.14,3.14,5.48,5.48,0,0,1-.6-.07c-.93-.15-1.44-.44-1.54-.67s-.25-.56.3-1.27A5.36,5.36,0,0,1,119.2,204a1.87,1.87,0,0,1,.34,0h.12a3.14,3.14,0,0,1,.48.08m37.13,1.79a2.83,2.83,0,0,1-1.92.63c-1.21-1.62-4.34-5.44-8.31-7.39a1.47,1.47,0,0,0-1.11-.06,1.45,1.45,0,0,0-.89,1.83,1.42,1.42,0,0,0,.73.83c3.36,1.64,6.15,5,7.24,6.49a2.75,2.75,0,0,1-.42.66,3,3,0,0,1-2.37.91A12.57,12.57,0,0,0,148.3,207a25.75,25.75,0,0,0-3.81-3.24,1.42,1.42,0,0,0-1.08-.24,1.38,1.38,0,0,0-.93.59,1.43,1.43,0,0,0-.24,1.08,1.46,1.46,0,0,0,.59.93,22.34,22.34,0,0,1,3.28,2.76,9.55,9.55,0,0,1,1.51,2.13,3.85,3.85,0,0,1-.66.9,2.23,2.23,0,0,1-1.92.61,15.9,15.9,0,0,0-2.63-4,1.44,1.44,0,0,0-2-.12,1.42,1.42,0,0,0-.48,1,1.4,1.4,0,0,0,.36,1,13.56,13.56,0,0,1,2,2.89,5.28,5.28,0,0,1-.75.38,4.93,4.93,0,0,1-2.33.29,4,4,0,0,0,.64-1.75,3.79,3.79,0,0,0-1.28-3.18,4,4,0,0,0-3.48-.94,3.82,3.82,0,0,0-1.4-2.38,4.51,4.51,0,0,0-4.53-.94h0a4.32,4.32,0,0,0-2.19-2.2,5,5,0,0,0-3.86-.27,5.81,5.81,0,0,0-3.16-1.22,7.91,7.91,0,0,0-6,2.2c-8.24,4.4-18.82,9.17-23.12,11.07A82.75,82.75,0,0,1,85,200.81c-.42-1.31-.82-2.65-1.19-4,12.1-1.39,21.83-2.81,28.93-4.23,7.44-1.48,12.24-3,14.7-4.65,2.83-2,4.77-3,7.47-2.74.64.05,1.22.12,1.76.19a8.06,8.06,0,0,0-1.48.83c-1.13.8-1.83,1.37-2.45,1.87a21.84,21.84,0,0,1-1.9,1.42,21.17,21.17,0,0,1-2,1.06c-1.68.82-3,1.47-3.45,2.62a3.53,3.53,0,0,0,.57,3.51c1.3,1.8,3.39,1.69,5.07,1.59a14.17,14.17,0,0,0,5.87-1.76c.6-.35,1.13-.7,1.6-1a7.11,7.11,0,0,1,1.79-1l.09,0a8,8,0,0,1,5,.52,27.58,27.58,0,0,1,5.05,2.76,33.68,33.68,0,0,1,7.4,6.8,2.38,2.38,0,0,1-.65,1.32m5.23-1.12a14.34,14.34,0,0,1-2.51-2.24h0l0-.06a2.6,2.6,0,0,1-.21-.25,35.62,35.62,0,0,0-7.63-6.86c-2.66-1.73-7.6-5-12.39-3.65A8.55,8.55,0,0,0,137,193.1c-.45.3-.92.61-1.45.92a11.28,11.28,0,0,1-4.59,1.38c-1.36.08-2.21.09-2.56-.39s-.29-.59-.25-.72a13.31,13.31,0,0,1,2-1.14,21.51,21.51,0,0,0,2.29-1.24,20.37,20.37,0,0,0,2.15-1.6c.58-.47,1.24-1,2.29-1.74,1.44-1,3-1,5.39-1.09h.05l1.12,0,.89,0c2.55-.12,4.85.71,8.33,2,1,.37,2.15.78,3.45,1.22.19.06,4.88,1.54,11.25,3.05a136.06,136.06,0,0,0,21.37,3.5c-.34,1.24-.71,2.47-1.09,3.66a82.93,82.93,0,0,1-6,14.09c-3.83-1.58-13.09-5.6-19.18-10.12m17.87,30.66c-3.7,3.47-6.85,4.67-8.85,5.07a10.39,10.39,0,0,1-2.06.21,7.17,7.17,0,0,1-1.35-.11,0,0,0,0,1-.05-.05,10.91,10.91,0,0,1,3-7.66,17.44,17.44,0,0,1,2.22-2.15s0,0,.06,0,0,0,0,.06a17.92,17.92,0,0,1-1.1,4.33.84.84,0,0,0,.18.94.89.89,0,0,0,.93.2,14.12,14.12,0,0,1,7-.93.07.07,0,0,1,0,0s0,.05,0,.06m6.53-8.68a20.83,20.83,0,0,1-3.82,4,14.18,14.18,0,0,1-4.33,2.36,11,11,0,0,1-3.33.55H175s-.06,0-.06-.06a12.77,12.77,0,0,1,2.29-7.82,20,20,0,0,1,1.79-2.38.08.08,0,0,1,.07,0s0,0,0,.05a17.48,17.48,0,0,1-.25,4.53.85.85,0,0,0,.36.88.86.86,0,0,0,.95,0,14,14,0,0,1,6.65-2.24.07.07,0,0,1,.06,0,.06.06,0,0,1,0,.07m2-4.55a14,14,0,0,1-4.06,2.8,10.9,10.9,0,0,1-3.66.92h0a.06.06,0,0,1-.06-.05,12.81,12.81,0,0,1,1.44-8,21,21,0,0,1,1.54-2.54.07.07,0,0,1,.06,0,.12.12,0,0,1,.05.05,18.17,18.17,0,0,1,.23,4.53.87.87,0,0,0,.45.84.85.85,0,0,0,.95-.08,14.06,14.06,0,0,1,6.38-2.91,0,0,0,0,1,.06,0,.09.09,0,0,1,0,.07,20.37,20.37,0,0,1-3.38,4.4m4.79-9.3a13.68,13.68,0,0,1-3.7,3.24,10.59,10.59,0,0,1-3.52,1.34h0a.07.07,0,0,1-.06,0,13,13,0,0,1,.48-8.25,18.11,18.11,0,0,1,1.19-2.58.06.06,0,0,1,.06,0,.07.07,0,0,1,0,0,20,20,0,0,1,.8,4.49.86.86,0,0,0,.57.77.89.89,0,0,0,.94-.22,12.44,12.44,0,0,1,5.11-3.48c.3-.1.61-.19.92-.27l.06,0a.09.09,0,0,1,0,.07,20.53,20.53,0,0,1-2.9,4.9m3.66-9.72a14,14,0,0,1-3.36,3.59,10.6,10.6,0,0,1-3.38,1.67h0a.05.05,0,0,1-.06,0,13.67,13.67,0,0,1-.35-8.28,19.42,19.42,0,0,1,.93-2.89.07.07,0,0,1,.05,0h0a.07.07,0,0,1,.06,0,19.15,19.15,0,0,1,1.25,4.61.87.87,0,0,0,.63.72.86.86,0,0,0,.9-.28,14,14,0,0,1,5.61-4.2.07.07,0,0,1,.06,0,.07.07,0,0,1,0,.06,20.33,20.33,0,0,1-2.35,5M200,193.05a13.84,13.84,0,0,1-2.88,4,10.47,10.47,0,0,1-3.14,2.07h0a.05.05,0,0,1-.05,0,13.48,13.48,0,0,1-1.42-8.34,19.88,19.88,0,0,1,.59-2.92.08.08,0,0,1,0-.05.07.07,0,0,1,.06,0A20.56,20.56,0,0,1,195,192.3a.86.86,0,0,0,.7.65.87.87,0,0,0,.87-.4,13.92,13.92,0,0,1,5-4.84.06.06,0,0,1,.06,0,.07.07,0,0,1,0,.06,20.2,20.2,0,0,1-1.71,5.28"/><path class="cls-5" d="M154.89,90.71A14.59,14.59,0,0,1,160.54,92l.27.05a52.06,52.06,0,0,0,5.25.63l.54,0a16.57,16.57,0,0,1-2.93-1.33c-.56-.31-1.13-.62-1.8-.93A20.07,20.07,0,0,0,157.35,89a.59.59,0,0,1-.51-.58.61.61,0,0,1,.51-.59l10.23-1.53-10.22-1.46a.59.59,0,0,1-.23-1.09,13.62,13.62,0,0,1,4-1.57,46.86,46.86,0,0,0,5.09-1.42l.51-.19a16.13,16.13,0,0,1-3.23-.11c-.62-.07-1.27-.14-2-.16a19.73,19.73,0,0,0-4.71.45.59.59,0,0,1-.45-1.08l8.87-5.32-10,2.55a.6.6,0,0,1-.63-.92,14.08,14.08,0,0,1,3.1-3,47.66,47.66,0,0,0,4.15-3.27l.4-.37a16.44,16.44,0,0,1-3,1.14c-.61.18-1.24.36-1.92.62a20.11,20.11,0,0,0-4.18,2.22.58.58,0,0,1-.82-.82l6.16-8.31-8.28,6.19a.62.62,0,0,1-.68,0,.6.6,0,0,1-.25-.63,13.64,13.64,0,0,1,1.72-3.94,50.13,50.13,0,0,0,2.58-4.61c.08-.16.15-.33.23-.49a16.41,16.41,0,0,1-2.36,2.2c-.51.41-1,.81-1.53,1.31a19.1,19.1,0,0,0-3,3.66.59.59,0,0,1-1.08-.45l2.52-10L143,66.33a.6.6,0,0,1-.62.28.58.58,0,0,1-.47-.48,13.69,13.69,0,0,1,.07-4.3,47.27,47.27,0,0,0,.62-5.25c0-.18,0-.36,0-.54A16.35,16.35,0,0,1,141.29,59c-.3.56-.61,1.13-.91,1.8A19.61,19.61,0,0,0,139,65.31a.58.58,0,0,1-.58.5.59.59,0,0,1-.59-.5l-1.48-10.16L134.91,65.3a.59.59,0,0,1-.46.5.58.58,0,0,1-.62-.27,13.7,13.7,0,0,1-1.57-4,48,48,0,0,0-1.42-5.09c-.06-.17-.12-.34-.19-.51a16,16,0,0,1-.11,3.22c-.07.63-.14,1.28-.16,2a19.16,19.16,0,0,0,.45,4.72.6.6,0,0,1-.35.69.59.59,0,0,1-.73-.25l-5.35-8.87,2.57,10a.59.59,0,0,1-.23.64.6.6,0,0,1-.68,0,13.59,13.59,0,0,1-3-3.1,47.22,47.22,0,0,0-3.27-4.15c-.12-.14-.24-.27-.37-.4a15.84,15.84,0,0,1,1.13,3c.18.61.37,1.24.63,1.93a19.25,19.25,0,0,0,2.22,4.18.59.59,0,0,1-.06.77.6.6,0,0,1-.77.06l-8.33-6.17,6.21,8.28a.6.6,0,0,1,0,.68.59.59,0,0,1-.63.25,14.14,14.14,0,0,1-3.94-1.72,47.52,47.52,0,0,0-4.61-2.58l-.49-.23a15.85,15.85,0,0,1,2.2,2.35c.41.5.81,1,1.31,1.54a19.78,19.78,0,0,0,3.66,3,.59.59,0,0,1,.24.73.6.6,0,0,1-.69.35l-10.05-2.52,8.9,5.28a.62.62,0,0,1,.28.62.6.6,0,0,1-.48.48,13.88,13.88,0,0,1-4.3-.08,47.27,47.27,0,0,0-5.25-.62l-.54,0A15.3,15.3,0,0,1,109,81.35c.53.28,1.13.61,1.8.91a19.2,19.2,0,0,0,4.53,1.38.6.6,0,0,1,.51.59.59.59,0,0,1-.51.58l-10.24,1.51,10.24,1.49a.59.59,0,0,1,.5.46.59.59,0,0,1-.27.62,13.46,13.46,0,0,1-4,1.58,46.72,46.72,0,0,0-5.08,1.44l-.51.18a16,16,0,0,1,3.22.11c.15,0,1.58.14,2,.16s1,0,1.6,0l.12-.09A23.77,23.77,0,0,1,120.26,89a1.19,1.19,0,0,1,1.06.22,1.17,1.17,0,0,1,.42.78,16.06,16.06,0,0,1,1.66-.83,24.29,24.29,0,0,1,7.68-1.78,1.15,1.15,0,0,1,1,.37,1.18,1.18,0,0,1,.31.68,14.79,14.79,0,0,1,2.62-.75,24.32,24.32,0,0,1,7.9-.11,1.16,1.16,0,0,1,.89.64.87.87,0,0,1,.1.31,15.59,15.59,0,0,1,2.5-.17,24.11,24.11,0,0,1,7.76,1.48,1.17,1.17,0,0,1,.76.84v0"/><path class="cls-4" d="M140,77.77c10-1.58,11.05,1.29,11.05,1.29a.88.88,0,0,0,1.08.45s.67-.07.33-.88c0,0-1.09-3.25-6.38-3.82a21,21,0,0,0-5.72.17c-.89.15-1.14,2.1-1.14,2.1-.12.88.78.69.78.69"/><path class="cls-4" d="M131.49,79.7a12.26,12.26,0,0,0-4-.43c-4.5.15-5.68,2.94-5.68,2.94-.4.94.4,1,.4,1a1,1,0,0,0,1.24-.52s.26-.8,2.11-1.26a2.42,2.42,0,0,0-.16.85,2.3,2.3,0,1,0,4.6,0,2.26,2.26,0,0,0-.18-.9,2.92,2.92,0,0,1,1.65,1.49c.16.33.51.47,1.36.47s.7-.6.7-.6a4.43,4.43,0,0,0-2-3.06"/><path class="cls-4" d="M139.78,83.36c.85,0,1.2-.14,1.36-.47a2.92,2.92,0,0,1,1.65-1.49,2.28,2.28,0,0,0-.19.91,2.31,2.31,0,0,0,4.61,0,2.43,2.43,0,0,0-.16-.86c1.85.46,2.11,1.26,2.11,1.26a1,1,0,0,0,1.24.52s.79-.08.4-1c0,0-1.18-2.79-5.69-2.94a12.21,12.21,0,0,0-4,.43,4.43,4.43,0,0,0-2,3.06s-.23.6.7.6"/><path class="cls-4" d="M120.51,79.51a.86.86,0,0,0,1.07-.45s1.1-2.87,11.06-1.29c0,0,.9.19.77-.69,0,0-.25-2-1.13-2.1a21,21,0,0,0-5.72-.17c-5.29.57-6.39,3.83-6.39,3.83-.34.8.34.87.34.87"/><path class="cls-6" d="M180.34,235.34a14.12,14.12,0,0,0-7,.93.89.89,0,0,1-.93-.2.84.84,0,0,1-.18-.94,17.92,17.92,0,0,0,1.1-4.33s0-.05,0-.06-.05,0-.06,0a18.12,18.12,0,0,0-2.22,2.15,10.91,10.91,0,0,0-3,7.66,0,0,0,0,0,.05.05,7.17,7.17,0,0,0,1.35.11,10.39,10.39,0,0,0,2.06-.21c2-.4,5.16-1.6,8.85-5.07,0,0,0,0,0-.06a.07.07,0,0,0,0,0"/><path class="cls-6" d="M99.52,230.69a.06.06,0,0,0-.07,0,.07.07,0,0,0,0,.06,16.44,16.44,0,0,0,1.06,4.39.84.84,0,0,1-.18.94.89.89,0,0,1-.93.2,14.18,14.18,0,0,0-7-.94.1.1,0,0,0-.05,0,.06.06,0,0,0,0,.07,18.73,18.73,0,0,0,8.85,5.07,10.39,10.39,0,0,0,2.06.21,7.27,7.27,0,0,0,1.35-.11,0,0,0,0,0,.05-.05c.21-4.65-3.14-8.18-5.16-9.87"/><path class="cls-6" d="M186.85,226.66a14,14,0,0,0-6.65,2.24.86.86,0,0,1-.95,0,.85.85,0,0,1-.36-.88,17.48,17.48,0,0,0,.25-4.53s0-.05,0-.05a.08.08,0,0,0-.07,0,20,20,0,0,0-1.79,2.38,12.77,12.77,0,0,0-2.29,7.82s0,.05.06.06h.41a11,11,0,0,0,3.33-.55,14.18,14.18,0,0,0,4.33-2.36,21,21,0,0,0,3.83-4,.06.06,0,0,0,0-.06s0,0-.06,0"/><path class="cls-6" d="M192.2,217.72a14.06,14.06,0,0,0-6.38,2.91.85.85,0,0,1-.95.08.87.87,0,0,1-.45-.84,17.64,17.64,0,0,0-.23-4.53.08.08,0,0,0-.05-.05.07.07,0,0,0-.06,0,20.33,20.33,0,0,0-1.54,2.55,12.77,12.77,0,0,0-1.44,8,.06.06,0,0,0,.06.05h0a11,11,0,0,0,3.67-.92,14,14,0,0,0,4-2.8,20.62,20.62,0,0,0,3.38-4.4.09.09,0,0,0,0-.07,0,0,0,0,0-.06,0"/><path class="cls-6" d="M196.5,207.92c-.31.08-.62.16-.92.27a12.44,12.44,0,0,0-5.11,3.48.89.89,0,0,1-.94.22.86.86,0,0,1-.57-.77,20,20,0,0,0-.8-4.49.07.07,0,0,0,0,0,.06.06,0,0,0-.06,0,18.11,18.11,0,0,0-1.19,2.58,13,13,0,0,0-.48,8.24.06.06,0,0,0,.06.05h0a10.59,10.59,0,0,0,3.52-1.34,13.68,13.68,0,0,0,3.7-3.24,20.53,20.53,0,0,0,2.9-4.9.09.09,0,0,0,0-.07l-.06,0"/><path class="cls-6" d="M199.6,198.09a14,14,0,0,0-5.61,4.2.86.86,0,0,1-.9.28.87.87,0,0,1-.63-.72,19.15,19.15,0,0,0-1.25-4.61.07.07,0,0,0-.06,0,.07.07,0,0,0-.05,0,19.42,19.42,0,0,0-.93,2.89,13.67,13.67,0,0,0,.35,8.28.05.05,0,0,0,.06,0h0a10.7,10.7,0,0,0,3.38-1.67,14,14,0,0,0,3.36-3.59,20.5,20.5,0,0,0,2.35-5,.07.07,0,0,0,0-.06.07.07,0,0,0-.06,0"/><path class="cls-6" d="M201.63,187.71a13.92,13.92,0,0,0-5,4.84.86.86,0,0,1-1.57-.25,20.56,20.56,0,0,0-1.82-4.52.07.07,0,0,0-.06,0,.08.08,0,0,0,0,.05,19.88,19.88,0,0,0-.59,2.92,13.48,13.48,0,0,0,1.42,8.34.05.05,0,0,0,.05,0h0a10.47,10.47,0,0,0,3.14-2.07,13.84,13.84,0,0,0,2.88-4,20.2,20.2,0,0,0,1.71-5.28.07.07,0,0,0,0-.06.06.06,0,0,0-.06,0"/><path class="cls-6" d="M198.08,182.63a.84.84,0,0,1-.83.49.87.87,0,0,1-.77-.58,15,15,0,0,0-2.23-4.11l-.06,0a.08.08,0,0,0-.05.05,17.86,17.86,0,0,0-.32,3,12.67,12.67,0,0,0,2.34,7.95.05.05,0,0,0,.05,0h0a10.63,10.63,0,0,0,2.89-2.4,13.76,13.76,0,0,0,2.41-4.25,20.26,20.26,0,0,0,1.1-5.43.06.06,0,0,0,0-.06.09.09,0,0,0-.07,0,13.94,13.94,0,0,0-4.46,5.36"/><path class="cls-6" d="M197.72,173.2a.87.87,0,0,1-.83-.48,18.19,18.19,0,0,0-2.55-3.7,0,0,0,0,0-.06,0,.05.05,0,0,0,0,.06c-.09,2.54.17,7.29,3,10.49l0,0h0A10.52,10.52,0,0,0,200,176.9a13.72,13.72,0,0,0,2-4.46,20.64,20.64,0,0,0,.55-5.53.07.07,0,0,0,0,0,0,0,0,0,0-.06,0,13.82,13.82,0,0,0-3.91,5.76.86.86,0,0,1-.76.57"/><path class="cls-6" d="M197.23,163.08a.87.87,0,0,1-.86-.4,18.4,18.4,0,0,0-2.82-3.36.06.06,0,0,0-.07,0,.06.06,0,0,0,0,.06c.25,2.78,1.1,7.79,3.89,10.11h.08a10.46,10.46,0,0,0,2.4-2.95,13.65,13.65,0,0,0,1.54-4.64,20.51,20.51,0,0,0,0-5.54s0,0,0,0a.06.06,0,0,0-.07,0,13.85,13.85,0,0,0-3.32,6.13.88.88,0,0,1-.71.64"/><path class="cls-6" d="M195.9,153.22a.88.88,0,0,1-.89-.35,17.88,17.88,0,0,0-3.07-3.31.06.06,0,0,0-.07,0,.07.07,0,0,0,0,.06,21.21,21.21,0,0,0,.51,2.94,13.37,13.37,0,0,0,4,7l0,0a.05.05,0,0,0,0,0,10.18,10.18,0,0,0,2.22-3,13.51,13.51,0,0,0,1.32-4.7,20.26,20.26,0,0,0-.25-5.54.06.06,0,0,0-.05-.05s0,0-.06,0a13.81,13.81,0,0,0-3,6.27.86.86,0,0,1-.67.67"/><path class="cls-6" d="M193.7,143.5a.87.87,0,0,1-.92-.23,18.22,18.22,0,0,0-3.55-2.89h-.07s0,0,0,.06a20,20,0,0,0,.86,2.82,12.92,12.92,0,0,0,5,6.47h0l0,0a10.54,10.54,0,0,0,1.78-3.29,13.61,13.61,0,0,0,.66-4.84,20,20,0,0,0-1-5.46,0,0,0,0,0-.05,0,.05.05,0,0,0-.05,0,13.69,13.69,0,0,0-2.14,6.62.88.88,0,0,1-.58.76"/><path class="cls-6" d="M189.39,133.84a19.15,19.15,0,0,0-3.83-2.51,0,0,0,0,0-.06,0s0,0,0,.06a20,20,0,0,0,1.15,2.72,12.94,12.94,0,0,0,5.66,5.92h0a.05.05,0,0,0,.05,0,10.36,10.36,0,0,0,1.44-3.45,13.67,13.67,0,0,0,.14-4.88,20.35,20.35,0,0,0-1.57-5.33.06.06,0,0,0-.06,0s0,0,0,0a13.73,13.73,0,0,0-1.44,6.8.86.86,0,0,1-1.44.68"/><path class="cls-6" d="M180.79,122.81a.06.06,0,0,0,0,.07,16.92,16.92,0,0,0,1.42,2.66,12.76,12.76,0,0,0,6.5,5.29h0a.05.05,0,0,0,.05,0,10.48,10.48,0,0,0,1-3.59,13.64,13.64,0,0,0-.43-4.86,20.88,20.88,0,0,0-2.19-5.12.09.09,0,0,0-.06,0,.07.07,0,0,0-.05,0,13.66,13.66,0,0,0-.63,6.91.86.86,0,0,1-.42.88.88.88,0,0,1-1-.07,14,14,0,0,0-4.18-2.17s0,0-.06,0"/><path class="cls-6" d="M175.08,115.25a.06.06,0,0,0,0,.06,20.23,20.23,0,0,0,2,2.49,13.18,13.18,0,0,0,7.1,4.18h0a.07.07,0,0,0,.06,0,10.23,10.23,0,0,0,.42-3.7,13.44,13.44,0,0,0-1.21-4.73,20.41,20.41,0,0,0-2.92-4.62.06.06,0,0,0-.07,0,0,0,0,0,0,0,0,15.22,15.22,0,0,0,.44,6.85.88.88,0,0,1-.32,1,.87.87,0,0,1-1,0,9.77,9.77,0,0,0-4.38-1.51.06.06,0,0,0-.06,0"/><path class="cls-6" d="M174,109.1a.87.87,0,0,1-1,.23,13.09,13.09,0,0,0-4.21-.79h-.33a.07.07,0,0,0,0,0s0,0,0,.06A22.69,22.69,0,0,0,171,110.9a12.57,12.57,0,0,0,7.27,2.9h.15a.06.06,0,0,0,.06,0,11.19,11.19,0,0,0-.24-3.81,14.34,14.34,0,0,0-2-4.5,20.05,20.05,0,0,0-3.61-4.1s0,0-.06,0a.07.07,0,0,0,0,0,13.69,13.69,0,0,0,1.6,6.74.86.86,0,0,1-.12,1"/><path class="cls-6" d="M97.42,233.7h.4s.06,0,.06-.06c.26-4.19-2.47-8.16-4.12-10.15a.07.07,0,0,0-.06,0,.08.08,0,0,0,0,0,14.1,14.1,0,0,0,.29,4.45.88.88,0,0,1-.34.91.86.86,0,0,1-1,0A14.07,14.07,0,0,0,86,226.65a.06.06,0,0,0-.06,0,.06.06,0,0,0,0,.07,20.64,20.64,0,0,0,3.83,4,14.07,14.07,0,0,0,4.33,2.36,11,11,0,0,0,3.33.55"/><path class="cls-6" d="M91.67,225.93h0a0,0,0,0,0,0-.05,13.3,13.3,0,0,0-1.46-7.95,20,20,0,0,0-1.52-2.58l-.06,0s0,0,0,.05a15.87,15.87,0,0,0-.23,4.48.86.86,0,0,1-.44.86.85.85,0,0,1-1-.08,14.2,14.2,0,0,0-6.39-2.92.09.09,0,0,0-.06,0,.06.06,0,0,0,0,.06A20.77,20.77,0,0,0,84,222.21,14.09,14.09,0,0,0,88,225a10.72,10.72,0,0,0,3.66.92"/><path class="cls-6" d="M86.33,217.62h0a.06.06,0,0,0,.06,0,12.62,12.62,0,0,0-.45-8.22,18.37,18.37,0,0,0-1.25-2.66.06.06,0,0,0-.06,0,.07.07,0,0,0,0,0,17.66,17.66,0,0,0-.78,4.53.88.88,0,0,1-.55.78.86.86,0,0,1-.93-.19,14.26,14.26,0,0,0-5.14-3.35c-.28-.11-.57-.2-.86-.29a.07.07,0,0,0-.06,0,.06.06,0,0,0,0,.07,20.62,20.62,0,0,0,2.84,4.77,14,14,0,0,0,3.7,3.24,10.6,10.6,0,0,0,3.53,1.33"/><path class="cls-6" d="M82,208.64h0a.07.07,0,0,0,.06,0c2-4.45.61-8.84-.41-11.06a.07.07,0,0,0,0,0h0a.07.07,0,0,0-.06,0A17.85,17.85,0,0,0,80.22,202a.87.87,0,0,1-.63.72.86.86,0,0,1-.9-.3A14.25,14.25,0,0,0,74,198.52c-.27-.14-.55-.26-.82-.38a.06.06,0,0,0-.07,0,.07.07,0,0,0,0,.06c2.36,7.8,7,9.9,8.93,10.43"/><path class="cls-6" d="M75.52,197.28a10.57,10.57,0,0,0,3.24,2h0a.05.05,0,0,0,0,0,11.59,11.59,0,0,0,1.45-8.48,12.84,12.84,0,0,0-.94-2.76.05.05,0,0,0,0,0,.07.07,0,0,0-.06,0,17.68,17.68,0,0,0-1.76,4.52h0a.86.86,0,0,1-1.56.3,13.85,13.85,0,0,0-5.2-4.68.06.06,0,0,0-.07,0s0,0,0,.06a20.84,20.84,0,0,0,1.88,5.22,13.82,13.82,0,0,0,3,3.86"/><path class="cls-6" d="M76.09,189.72h0l0,0a13.38,13.38,0,0,0,2.45-10.89s0,0-.05,0,0,0-.06,0a17,17,0,0,0-2.46,4.09.87.87,0,0,1-.79.53h0a.84.84,0,0,1-.78-.51,14.18,14.18,0,0,0-3.6-4.93c-.23-.2-.47-.39-.71-.57a.06.06,0,0,0-.07,0,.07.07,0,0,0,0,.06c.36,8.1,4.34,11.27,6,12.26"/><path class="cls-6" d="M75.25,179.89h0l0,0a10.31,10.31,0,0,0,3-5.86,15.88,15.88,0,0,0,0-5.05s0,0,0,0,0,0-.06,0A7.47,7.47,0,0,0,76,172.78a.87.87,0,0,1-1.68.13,14.06,14.06,0,0,0-3-5.27c-.21-.23-.43-.44-.65-.65a.06.06,0,0,0-.1,0c-.51,8.15,3.15,11.71,4.75,12.86"/><path class="cls-6" d="M72.89,166.53a10.48,10.48,0,0,0,2.36,2.91l0,0,0,0a12.41,12.41,0,0,0,3.61-7.3,20.35,20.35,0,0,0,.25-3s0,0,0-.06a0,0,0,0,0-.06,0,12.57,12.57,0,0,0-2.7,3.54.87.87,0,0,1-1.62-.15,13.85,13.85,0,0,0-3.32-6.13,0,0,0,0,0-.06,0s0,0,0,0a20.5,20.5,0,0,0,0,5.54,13.65,13.65,0,0,0,1.54,4.64"/><path class="cls-6" d="M73.94,156.42a10.31,10.31,0,0,0,2.2,3h.08a13.71,13.71,0,0,0,4.27-7.35,14.38,14.38,0,0,0,.37-2.7s0,0,0-.05,0,0-.06,0a17.6,17.6,0,0,0-3.2,3.41.87.87,0,0,1-.89.36.88.88,0,0,1-.67-.68,13.87,13.87,0,0,0-3-6.27.08.08,0,0,0-.11,0,20.73,20.73,0,0,0-.25,5.55,13.63,13.63,0,0,0,1.32,4.7"/><path class="cls-6" d="M77.48,149.6s0,0,0,0h0a12.41,12.41,0,0,0,5.36-6.81,14.23,14.23,0,0,0,.6-2.72.09.09,0,0,0,0-.06h-.06a15.87,15.87,0,0,0-3.7,3.06.86.86,0,0,1-1.52-.48A13.78,13.78,0,0,0,76,136a0,0,0,0,0-.06,0,.07.07,0,0,0,0,0,20.34,20.34,0,0,0-.94,5.48,13.75,13.75,0,0,0,.72,4.83,10.3,10.3,0,0,0,1.84,3.26"/><path class="cls-6" d="M80,140a.05.05,0,0,0,0,0h0a13.29,13.29,0,0,0,7.11-8.64.08.08,0,0,0,0-.07H87.1A18.18,18.18,0,0,0,83,133.85a.86.86,0,0,1-1.43-.69,13.68,13.68,0,0,0-1.38-6.83.05.05,0,0,0,0,0h0a.05.05,0,0,0-.06,0,20.2,20.2,0,0,0-1.62,5.31,13.7,13.7,0,0,0,.1,4.88A10.19,10.19,0,0,0,80,140"/><path class="cls-6" d="M83.62,130.8a.05.05,0,0,0,0,0h0a12.54,12.54,0,0,0,6.58-4.94A19.28,19.28,0,0,0,92,123.07a.09.09,0,0,0,0-.07l-.06,0A8.44,8.44,0,0,0,87.68,125a.86.86,0,0,1-1.45-.78,13.75,13.75,0,0,0-.34-7,.07.07,0,0,0,0,0,.07.07,0,0,0-.06,0,20.34,20.34,0,0,0-2.41,5,13.74,13.74,0,0,0-.63,4.84,10.45,10.45,0,0,0,.88,3.64"/><path class="cls-6" d="M88.68,122h0c4.19-.7,7.44-4.47,9-6.66a.09.09,0,0,0,0-.07.06.06,0,0,0-.06,0,10.08,10.08,0,0,0-4.32,1.5.86.86,0,0,1-1.31-1,13.56,13.56,0,0,0,.5-6.93,0,0,0,0,0,0,0,0,0,0,0,0-.06,0C87.16,115.1,88,120.1,88.62,122a.06.06,0,0,0,.06,0"/><path class="cls-6" d="M94.57,113.83h.3c2.49,0,5.07-1.58,6.84-2.94a27.44,27.44,0,0,0,2.55-2.24.07.07,0,0,0,0-.07.08.08,0,0,0-.06,0,17.3,17.3,0,0,0-4.34.79.86.86,0,0,1-1-1.22,13.7,13.7,0,0,0,1.6-6.75.06.06,0,0,0,0-.06.08.08,0,0,0-.07,0,20.38,20.38,0,0,0-3.71,4.19A13.44,13.44,0,0,0,94.68,110a10.23,10.23,0,0,0-.17,3.79.06.06,0,0,0,.06,0"/><path class="cls-6" d="M112,102.74a18.38,18.38,0,0,0-4.46.27.87.87,0,0,1-.9-1.32,13.69,13.69,0,0,0,2.25-6.57.07.07,0,0,0,0-.06,0,0,0,0,0-.06,0c-6.65,4.78-7.12,9.82-7,11.76a.06.06,0,0,0,0,.06h.44c4,0,7.82-2.52,9.75-4.05a.06.06,0,0,0,0-.07.07.07,0,0,0-.05,0"/><path class="cls-6" d="M120.47,98.65a14.71,14.71,0,0,0-2.33-.48,16.82,16.82,0,0,0-2.21-.16h0a.88.88,0,0,1-.82-.56.89.89,0,0,1,.25-1,14,14,0,0,0,3.9-5,.06.06,0,0,0,0-.07s0,0-.06,0c-7.74,2.63-9.43,7.14-9.8,9a.08.08,0,0,0,0,.07,11.28,11.28,0,0,0,3.07.41,16,16,0,0,0,5.21-.95,21.33,21.33,0,0,0,2.76-1.17.05.05,0,0,0,0-.05.07.07,0,0,0,0-.06"/><path class="cls-6" d="M129.73,96.15a18.6,18.6,0,0,0-4.31-1.45.88.88,0,0,1-.7-.73.85.85,0,0,1,.48-.89,11.89,11.89,0,0,0,4.45-3.4,0,0,0,0,0,0-.07.06.06,0,0,0-.06,0c-4,.56-7.1,1.9-9.1,3.88a8,8,0,0,0-1.82,2.66.05.05,0,0,0,0,.07,12.22,12.22,0,0,0,5.17,1.06,17.45,17.45,0,0,0,3-.27,21.38,21.38,0,0,0,2.86-.72.07.07,0,0,0,0-.05.06.06,0,0,0,0-.06"/><path class="cls-6" d="M135.77,93.53a.87.87,0,0,1,0-1.64,15.2,15.2,0,0,0,4.93-2.39.07.07,0,0,0,0-.07s0,0-.05,0c-3.89-.26-7.19.39-9.53,1.87a8.18,8.18,0,0,0-2.37,2.21.06.06,0,0,0,0,.08A14.4,14.4,0,0,0,137.49,96c.81,0,1.54,0,2.15-.1a.08.08,0,0,0,.05,0,0,0,0,0,0,0-.06,15.24,15.24,0,0,0-3.9-2.28"/><path class="cls-6" d="M145.92,94.22a.88.88,0,0,1-.35-.92.86.86,0,0,1,.74-.65,17.43,17.43,0,0,0,5.25-1.39.06.06,0,0,0,0-.06.07.07,0,0,0,0,0c-3.72-1-7-1-9.62-.05a8.21,8.21,0,0,0-2.78,1.69.07.07,0,0,0,0,.09,13.65,13.65,0,0,0,10.16,4.63h0a.06.06,0,0,0,.06,0,.06.06,0,0,0,0-.07,18.08,18.08,0,0,0-3.44-3.19"/><path class="cls-6" d="M171.18,106.87a.06.06,0,0,0,0-.06,11.15,11.15,0,0,0-.75-4.22,10.67,10.67,0,0,0-7-6.24.07.07,0,0,0-.08.08,18,18,0,0,0,2.76,5.18.86.86,0,0,1,.05,1,.88.88,0,0,1-.93.38,11.85,11.85,0,0,0-4.42-.07.07.07,0,0,0,0,0,0,0,0,0,0,0,.06c2.21,1.47,6.34,3.85,9.9,3.85h.46"/><path class="cls-6" d="M163.14,100.59s0,0,0,0a8.87,8.87,0,0,0-7.34-2.81,13,13,0,0,0-3.15.59.07.07,0,0,0,0,.05.11.11,0,0,0,0,.06,11.84,11.84,0,0,0,7.3,2.73h.41a9.54,9.54,0,0,0,2.78-.53s0,0,0,0"/><path class="cls-6" d="M148.91,94.35a.07.07,0,0,0,0,.06A9.19,9.19,0,0,0,154.35,96a16,16,0,0,0,2.82-.27A21.5,21.5,0,0,0,161,94.58a.07.07,0,0,0,0-.06.05.05,0,0,0,0,0,13.73,13.73,0,0,0-4.3-1.56,11.63,11.63,0,0,0-4.59.14,11.92,11.92,0,0,0-3.19,1.26l0,0"/><path class="cls-7" d="M120,150.83a2.92,2.92,0,0,0,2.41.86h11.22c-6.73-4.18-9.21-3.42-13.91-1.29a2.65,2.65,0,0,0,.28.43"/><path class="cls-7" d="M147.4,145.69a27.69,27.69,0,0,1-2.94-.9,29.15,29.15,0,0,1-6.55-3.79,1.64,1.64,0,0,1,2-2.58,26.44,26.44,0,0,0,5.74,3.31,22.06,22.06,0,0,0,2.55.77,23.29,23.29,0,0,1,4.54,1.56c-.3-1.85-.59-3.44-.91-4.95a22.69,22.69,0,0,1-8.4-4.18,1.65,1.65,0,0,1,2.1-2.54,20.84,20.84,0,0,0,5.42,3.05,63.34,63.34,0,0,0-4.94-12.79,11.32,11.32,0,0,0-6.65-5.89,10.78,10.78,0,0,0-3.8-.56h-.16c-.05,0-5.45.09-8.84,4.08l-.08.09c-.63.64-2.31,2.63-2.57,4.12a1.61,1.61,0,0,0,.57,1.77c.23.13,1.11.48,2.64-.59.38-.32.63-.49.7-.54a1.65,1.65,0,0,1,2,2.6c-.22.18-.44.36-.65.51a23.73,23.73,0,0,0-3.59,3.91,35.76,35.76,0,0,0-6.11,14.36c0,.14,0,.27-.07.41,4.67-2,8.45-2.86,16.77,2.5a15.6,15.6,0,0,0,7.72,2.26h3.79c1,.06,3.7-.08,4.94-1.44a2.43,2.43,0,0,0,.49-.8c-.08-1.94-1.85-2.74-5.76-3.77"/><path class="cls-8" d="M131.24,210a2.48,2.48,0,0,0,.95-1.31c0-.19-.14-.43-.44-.68a1.68,1.68,0,0,0-1.14-.46c-.82,0-1.83.58-3.3,1.61-.94.66-2.49,1.94-2.37,3.15a1,1,0,0,0,.43.82,4.82,4.82,0,0,0,2.86.25,8.29,8.29,0,0,1,3-3.38"/><path class="cls-8" d="M136.93,212c0-.08,0-.35-.44-.82,0,0-.72-.56-2.35.39a7.59,7.59,0,0,0-3.24,2.89,1.59,1.59,0,0,0,.87.49c1.35.27,3.24-.91,3.79-1.34l.11-.08c.38-.24,1.21-.95,1.26-1.53"/><path class="cls-8" d="M119.54,204a1.88,1.88,0,0,0-.34,0,5.34,5.34,0,0,0-3.71,1.86c-.55.71-.36,1.13-.3,1.27s.61.52,1.54.67a5.48,5.48,0,0,0,.6.07,7.24,7.24,0,0,1,2.14-3.14c.24-.23.45-.43.67-.62a3.14,3.14,0,0,0-.48-.08h-.12"/><path class="cls-8" d="M120.05,209.23c0,.26.09,1,1.51,1.44a6.11,6.11,0,0,0,.68.18,8.15,8.15,0,0,1,3.42-4.09l.79-.55a.48.48,0,0,0,0-.27,1.46,1.46,0,0,0-.81-.71,2,2,0,0,0-.93-.23c-.91,0-2,.59-3.23,1.81-1.07,1-1.45,1.68-1.41,2.42"/><path class="cls-8" d="M155.35,206.54a2.88,2.88,0,0,0,1.92-.64,2.38,2.38,0,0,0,.65-1.32,33.68,33.68,0,0,0-7.4-6.8,27.58,27.58,0,0,0-5.05-2.76,8,8,0,0,0-5-.52l-.09,0a7.11,7.11,0,0,0-1.79,1c-.47.31-1,.66-1.6,1a14.32,14.32,0,0,1-5.87,1.76c-1.68.1-3.77.21-5.07-1.59a3.53,3.53,0,0,1-.57-3.51c.43-1.15,1.76-1.8,3.45-2.62a21.17,21.17,0,0,0,2-1.06,21.84,21.84,0,0,0,1.9-1.42c.62-.5,1.32-1.07,2.45-1.87a8.06,8.06,0,0,1,1.48-.83c-.54-.07-1.12-.14-1.76-.19-2.7-.23-4.64.74-7.47,2.74-2.46,1.65-7.26,3.17-14.7,4.65-7.1,1.42-16.83,2.84-28.92,4.23.36,1.35.76,2.69,1.18,4a82.75,82.75,0,0,0,5.72,13.62c4.3-1.9,14.88-6.67,23.12-11.07a7.91,7.91,0,0,1,6-2.2,5.81,5.81,0,0,1,3.16,1.22,5,5,0,0,1,3.86.27,4.32,4.32,0,0,1,2.19,2.2h0a4.51,4.51,0,0,1,4.53.94,3.82,3.82,0,0,1,1.4,2.38,4,4,0,0,1,3.48.94,3.79,3.79,0,0,1,1.28,3.18,4,4,0,0,1-.64,1.75,4.93,4.93,0,0,0,2.33-.29,5.28,5.28,0,0,0,.75-.38,13.31,13.31,0,0,0-2-2.89,1.4,1.4,0,0,1-.36-1,1.42,1.42,0,0,1,.48-1,1.44,1.44,0,0,1,2,.12,15.9,15.9,0,0,1,2.63,4,2.23,2.23,0,0,0,1.92-.61,3.58,3.58,0,0,0,.66-.9,9.55,9.55,0,0,0-1.51-2.13,22.34,22.34,0,0,0-3.28-2.76,1.44,1.44,0,0,1-.35-2,1.38,1.38,0,0,1,.93-.59,1.42,1.42,0,0,1,1.08.24A25.75,25.75,0,0,1,148.3,207a12.57,12.57,0,0,1,1.92,2.77,3,3,0,0,0,2.37-.91,2.75,2.75,0,0,0,.42-.66c-1.09-1.46-3.88-4.85-7.24-6.49a1.42,1.42,0,0,1-.73-.83,1.45,1.45,0,0,1,.89-1.83,1.47,1.47,0,0,1,1.11.06c4,2,7.1,5.77,8.31,7.4"/><path class="cls-8" d="M137,193.1a8.55,8.55,0,0,1,2.74-1.39c4.79-1.3,9.73,1.92,12.39,3.65a35.62,35.62,0,0,1,7.63,6.86,2.6,2.6,0,0,0,.21.25l0,.06h0a14.34,14.34,0,0,0,2.51,2.24c6.09,4.52,15.35,8.55,19.18,10.12a82.93,82.93,0,0,0,6-14.09c.38-1.19.75-2.42,1.09-3.66a136.06,136.06,0,0,1-21.37-3.5c-6.37-1.51-11.06-3-11.25-3.05-1.3-.44-2.44-.85-3.46-1.22-3.47-1.25-5.77-2.08-8.32-2l-.89,0-1.12,0h-.05c-2.38.05-3.95.08-5.39,1.09-1,.74-1.71,1.27-2.29,1.75a21.93,21.93,0,0,1-2.15,1.59,21.51,21.51,0,0,1-2.29,1.24,14.26,14.26,0,0,0-2,1.13c0,.14-.06.29.25.73s1.2.47,2.56.39a11.28,11.28,0,0,0,4.59-1.38c.53-.31,1-.62,1.45-.92"/></svg>