<svg id="Layer_1" data-name="Layer 1" xmlns="http://www.w3.org/2000/svg" viewBox="0 0 436.56 344.72"><defs><style>.cls-1{fill:#fff;}</style></defs><path class="cls-1" d="M102.6,329.58l-3.16-9.69H86.29l-3.16,9.69H77.18L88.5,295.92h8.78l11.32,33.66ZM87.86,315h10l-5-15.28Z"/><path class="cls-1" d="M112,304.77h4.91l.46,3.23h.31a7,7,0,0,1,2.88-2.64,8.72,8.72,0,0,1,3.92-.89,13.43,13.43,0,0,1,2,.16V310a14.22,14.22,0,0,0-2.32-.16,9,9,0,0,0-3.49.73,6.35,6.35,0,0,0-2.69,2.07v16.9h-6Z"/><path class="cls-1" d="M133.6,339.77a24.92,24.92,0,0,1-3.9-.78v-4.73a27.34,27.34,0,0,0,7.53,1.14,11.14,11.14,0,0,0,4.13-.65,4.52,4.52,0,0,0,2.36-2.08,8.06,8.06,0,0,0,.76-3.78v-1.95h-.3a8,8,0,0,1-2.83,2.09,9,9,0,0,1-3.76.75,9.32,9.32,0,0,1-4.82-1.28,9.06,9.06,0,0,1-3.46-4,15.85,15.85,0,0,1-1.29-6.81q0-6.54,3.41-9.91t10.14-3.39a33.87,33.87,0,0,1,4.62.34,25,25,0,0,1,4.25,1v22.14a15.23,15.23,0,0,1-1.4,7,8.55,8.55,0,0,1-4.22,3.95,17.62,17.62,0,0,1-7.16,1.27A31.57,31.57,0,0,1,133.6,339.77Zm8.75-15.38a5.3,5.3,0,0,0,2.13-1.5V309.36a15.43,15.43,0,0,0-3.41-.38,6.78,6.78,0,0,0-5.29,1.95q-1.75,1.95-1.76,6.23t1.48,6a5.23,5.23,0,0,0,4.23,1.74A7.09,7.09,0,0,0,142.35,324.39Z"/><path class="cls-1" d="M176.5,319H161.15a8.67,8.67,0,0,0,.91,3.83,4.61,4.61,0,0,0,2.45,2.06,12.83,12.83,0,0,0,4.44.63,26.15,26.15,0,0,0,6.23-.86v4.52a28.74,28.74,0,0,1-7.05.89,17.23,17.23,0,0,1-7.29-1.34,8.89,8.89,0,0,1-4.26-4.17,16.55,16.55,0,0,1-1.41-7.36,17.14,17.14,0,0,1,1.29-7,9.25,9.25,0,0,1,3.76-4.3,11.41,11.41,0,0,1,5.93-1.45q5.07,0,7.71,3.27t2.64,9.69Zm-14.06-9c-.83,1.09-1.27,2.91-1.31,5.48h9.79c0-2.57-.46-4.39-1.26-5.48a4.11,4.11,0,0,0-3.55-1.64A4.35,4.35,0,0,0,162.44,309.91Z"/><path class="cls-1" d="M180.93,304.77h4.93l.41,2.61h.32a9.61,9.61,0,0,1,3.33-2.23,11,11,0,0,1,4.11-.77,8.17,8.17,0,0,1,6.07,2.26c1.48,1.51,2.23,3.9,2.23,7.16v15.78h-6V314.14a4.89,4.89,0,0,0-1.05-3.54,4.12,4.12,0,0,0-3-1.06,7.36,7.36,0,0,0-3,.63,6.06,6.06,0,0,0-2.43,1.88v17.53h-6Z"/><path class="cls-1" d="M222.81,324.75v4.78a19.16,19.16,0,0,1-4.29.5q-8.84,0-8.83-8.89V309.52h-4.27v-4.75h4.27l1.05-8.85h4.91v8.85h6.94v4.75h-6.94v10.66a7.34,7.34,0,0,0,.47,2.89,2.91,2.91,0,0,0,1.42,1.54,5.82,5.82,0,0,0,2.52.46A14.41,14.41,0,0,0,222.81,324.75Z"/><path class="cls-1" d="M226.69,299.69a3.52,3.52,0,0,1,0-4.81,5.19,5.19,0,0,1,5.66,0,3.55,3.55,0,0,1,0,4.81,5.24,5.24,0,0,1-5.66,0Zm-.17,29.89V304.77h6v24.81Z"/><path class="cls-1" d="M238.41,304.77h4.93l.41,2.61h.32a9.61,9.61,0,0,1,3.33-2.23,11,11,0,0,1,4.11-.77,8.17,8.17,0,0,1,6.07,2.26c1.48,1.51,2.23,3.9,2.23,7.16v15.78h-6V314.14a4.89,4.89,0,0,0-1-3.54,4.12,4.12,0,0,0-3-1.06,7.36,7.36,0,0,0-3,.63,6.06,6.06,0,0,0-2.43,1.88v17.53h-6Z"/><path class="cls-1" d="M279.89,305.32a6.64,6.64,0,0,1,3.48,3.11,12.53,12.53,0,0,1,1.15,5.86v15.29h-4.93l-.41-2.57h-.32a7,7,0,0,1-2.88,2.24,9.81,9.81,0,0,1-3.89.76,9.44,9.44,0,0,1-4.21-.87,6.28,6.28,0,0,1-2.72-2.44,7.09,7.09,0,0,1-.94-3.72,6.46,6.46,0,0,1,2.36-5.34q2.37-1.89,7.48-2.3l4.64-.43v-1a6.15,6.15,0,0,0-.6-3,3.31,3.31,0,0,0-1.89-1.53,10.65,10.65,0,0,0-3.44-.45,21.89,21.89,0,0,0-3.3.26,20.89,20.89,0,0,0-3.41.78v-4.57a22.38,22.38,0,0,1,3.76-.79,29.22,29.22,0,0,1,3.95-.28A16.89,16.89,0,0,1,279.89,305.32Zm-3.4,20a6.13,6.13,0,0,0,2.21-1.59v-5.28l-4.07.36a6.36,6.36,0,0,0-3.42,1.13,3.09,3.09,0,0,0-1.08,2.51,3.15,3.15,0,0,0,1,2.5,4.08,4.08,0,0,0,2.83.87A6.86,6.86,0,0,0,276.49,325.28Z"/><path class="cls-1" d="M290.33,328.92a3.52,3.52,0,0,1-1.08-2.71,3.58,3.58,0,0,1,1.07-2.72,4.62,4.62,0,0,1,5.78,0,3.61,3.61,0,0,1,1.07,2.71,3.51,3.51,0,0,1-1.09,2.69,4,4,0,0,1-2.87,1A4.1,4.1,0,0,1,290.33,328.92Z"/><path class="cls-1" d="M305.84,339.77a24.92,24.92,0,0,1-3.9-.78v-4.73a27.34,27.34,0,0,0,7.53,1.14,11.23,11.23,0,0,0,4.14-.65,4.49,4.49,0,0,0,2.35-2.08,8.06,8.06,0,0,0,.76-3.78v-1.95h-.3a8,8,0,0,1-2.83,2.09,9,9,0,0,1-3.76.75A9.32,9.32,0,0,1,305,328.5a9.06,9.06,0,0,1-3.46-4,15.85,15.85,0,0,1-1.29-6.81q0-6.54,3.41-9.91t10.14-3.39a33.87,33.87,0,0,1,4.62.34,25,25,0,0,1,4.25,1v22.14a15.23,15.23,0,0,1-1.4,7,8.55,8.55,0,0,1-4.22,3.95A17.62,17.62,0,0,1,309.9,340,31.57,31.57,0,0,1,305.84,339.77Zm8.75-15.38a5.3,5.3,0,0,0,2.13-1.5V309.36a15.43,15.43,0,0,0-3.41-.38,6.78,6.78,0,0,0-5.29,1.95q-1.75,1.95-1.76,6.23t1.48,6a5.23,5.23,0,0,0,4.23,1.74A7.09,7.09,0,0,0,314.59,324.39Z"/><path class="cls-1" d="M330.46,326.83q-3-3.21-3-9.6t3-9.64c2-2.14,4.85-3.21,8.54-3.21s6.53,1.07,8.54,3.21,3,5.34,3,9.62a16.25,16.25,0,0,1-1.4,7.14,9.36,9.36,0,0,1-4,4.27A12.71,12.71,0,0,1,339,330Q333.52,330,330.46,326.83Zm12.65-3.26q1.39-1.86,1.4-6.32t-1.4-6.4a5.55,5.55,0,0,0-8.3,0c-.94,1.24-1.4,3.35-1.4,6.32a14.73,14.73,0,0,0,.65,4.89,4.9,4.9,0,0,0,1.86,2.6,5.43,5.43,0,0,0,3,.79A4.86,4.86,0,0,0,343.11,323.57Z"/><path class="cls-1" d="M359.41,329.7a24.68,24.68,0,0,1-4.26-1v-35.9h6v14.39h.3a7.88,7.88,0,0,1,2.82-2.09,9.16,9.16,0,0,1,3.77-.75,9.31,9.31,0,0,1,4.87,1.29,8.77,8.77,0,0,1,3.43,4,16.69,16.69,0,0,1,1.28,7q0,6.65-3.39,10T364,330A32.66,32.66,0,0,1,359.41,329.7Zm10.41-6.22q1.74-2,1.74-6.32t-1.47-6.08a5.21,5.21,0,0,0-4.23-1.76,7,7,0,0,0-2.63.5,5.37,5.37,0,0,0-2.13,1.5V325a13.28,13.28,0,0,0,3.44.43A6.71,6.71,0,0,0,369.82,323.48Z"/><path class="cls-1" d="M381.67,328.92a3.52,3.52,0,0,1-1.08-2.71,3.58,3.58,0,0,1,1.07-2.72,4,4,0,0,1,2.89-1,4,4,0,0,1,2.88,1,3.57,3.57,0,0,1,1.07,2.71,3.5,3.5,0,0,1-1.08,2.69,4,4,0,0,1-2.87,1A4.1,4.1,0,0,1,381.67,328.92Z"/><path class="cls-1" d="M407.88,305.32a6.64,6.64,0,0,1,3.48,3.11,12.53,12.53,0,0,1,1.15,5.86v15.29h-4.93l-.41-2.57h-.32a7,7,0,0,1-2.88,2.24,9.81,9.81,0,0,1-3.89.76,9.44,9.44,0,0,1-4.21-.87,6.28,6.28,0,0,1-2.72-2.44,7.09,7.09,0,0,1-.94-3.72,6.46,6.46,0,0,1,2.36-5.34q2.37-1.89,7.48-2.3l4.64-.43v-1a6.15,6.15,0,0,0-.6-3,3.31,3.31,0,0,0-1.89-1.53,10.65,10.65,0,0,0-3.44-.45,21.89,21.89,0,0,0-3.3.26,20.89,20.89,0,0,0-3.41.78v-4.57a22.38,22.38,0,0,1,3.76-.79,29.22,29.22,0,0,1,3.95-.28A16.89,16.89,0,0,1,407.88,305.32Zm-3.41,20a6.08,6.08,0,0,0,2.22-1.59v-5.28l-4.07.36a6.36,6.36,0,0,0-3.42,1.13,3.09,3.09,0,0,0-1.08,2.51,3.15,3.15,0,0,0,1,2.5,4.08,4.08,0,0,0,2.83.87A6.77,6.77,0,0,0,404.47,325.28Z"/><path class="cls-1" d="M418.22,304.77h4.91l.46,3.23h.31a7,7,0,0,1,2.88-2.64,8.72,8.72,0,0,1,3.92-.89,13.43,13.43,0,0,1,2,.16V310a14.22,14.22,0,0,0-2.32-.16,9,9,0,0,0-3.49.73,6.35,6.35,0,0,0-2.69,2.07v16.9h-6Z"/><path class="cls-1" d="M10.84,83.41Q0,73,0,50.44,0,28.53,11.1,17.62T43.15,6.71A76,76,0,0,1,61.4,8.89V21.63a69,69,0,0,0-17.16-2.12q-9.52,0-15.72,3.1a20.07,20.07,0,0,0-9.33,9.84q-3.12,6.75-3.12,17.76,0,11.25,3.09,18.05A19.44,19.44,0,0,0,28.32,78q6,3,15.29,3A60.11,60.11,0,0,0,61.4,78.21V91a56.8,56.8,0,0,1-9.15,2.12,65.9,65.9,0,0,1-10,.75Q21.7,93.82,10.84,83.41Z"/><path class="cls-1" d="M71.58,85.79q-7.71-8.1-7.72-24.22t7.61-24.33Q79.08,29.16,93,29.15t21.54,8.09q7.6,8.1,7.61,24.28,0,10.78-3.53,18a23.7,23.7,0,0,1-10.07,10.79A32.12,32.12,0,0,1,93,93.88Q79.3,93.88,71.58,85.79Zm31.91-8.21Q107,72.87,107,61.63q0-11.41-3.53-16.15c-2.35-3.16-5.85-4.74-10.47-4.74s-8.12,1.57-10.48,4.71S79,53.9,79,61.4a37.8,37.8,0,0,0,1.64,12.34,12.45,12.45,0,0,0,4.7,6.57,13.88,13.88,0,0,0,7.67,2C97.64,82.29,101.14,80.72,103.49,77.58Z"/><path class="cls-1" d="M132,30.13h12.45l1,6.59h.81a24.15,24.15,0,0,1,8.4-5.62,27.51,27.51,0,0,1,10.36-2q9.69,0,15.32,5.71t5.62,18V92.73H171v-39q0-6.26-2.64-8.93t-7.69-2.66a18.78,18.78,0,0,0-7.46,1.57,15.53,15.53,0,0,0-6.14,4.74V92.73H132Z"/><path class="cls-1" d="M196.47,91.24V80a65.11,65.11,0,0,0,18.94,2.76q6.66,0,9.73-2A6.46,6.46,0,0,0,228.21,75a6.3,6.3,0,0,0-1.61-4.65q-1.6-1.6-5.51-2.41l-9.52-1.78q-8.67-1.72-12.63-6t-4-11.62a17.23,17.23,0,0,1,3.07-10.19,19.8,19.8,0,0,1,9.33-6.74,43.26,43.26,0,0,1,15.49-2.41,62.27,62.27,0,0,1,16,2V42.29a59.31,59.31,0,0,0-15.61-2q-14.18,0-14.17,7.81a6,6,0,0,0,1.58,4.39A10.43,10.43,0,0,0,216,54.92l9.53,1.77q8.61,1.73,12.65,5.89t4.05,11.85a17.48,17.48,0,0,1-3.1,10.38,19.55,19.55,0,0,1-9.1,6.72,39.88,39.88,0,0,1-14.49,2.35A64,64,0,0,1,196.47,91.24Z"/><path class="cls-1" d="M256,88.11q-5.65-5.72-5.65-18v-40h15V69.2q0,6.26,2.61,8.93t7.44,2.66a17.89,17.89,0,0,0,7.26-1.6,15.32,15.32,0,0,0,6.05-4.76V30.13h15v62.6H291.27l-1-6.48h-.69a25.08,25.08,0,0,1-8.32,5.65,25.6,25.6,0,0,1-9.87,1.92Q261.61,93.82,256,88.11Z"/><path class="cls-1" d="M316.52,92.73V0h15V92.73Z"/><path class="cls-1" d="M381.65,80.57V92.62a48.08,48.08,0,0,1-10.85,1.26q-22.26,0-22.26-22.44V42.12H337.75v-12h10.79L351.18,7.8h12.39V30.13h17.5v12h-17.5V69a18.48,18.48,0,0,0,1.18,7.29,7.37,7.37,0,0,0,3.59,3.87,14.47,14.47,0,0,0,6.36,1.18A38.76,38.76,0,0,0,381.65,80.57Z"/><path class="cls-1" d="M424.85,31.53a16.7,16.7,0,0,1,8.81,7.84q2.89,5.45,2.9,14.8V92.73H424.11l-1-6.48h-.81A17.69,17.69,0,0,1,415,91.9a24.54,24.54,0,0,1-9.84,1.92,24,24,0,0,1-10.61-2.18,15.74,15.74,0,0,1-6.86-6.17,17.92,17.92,0,0,1-2.38-9.38q0-8.72,6-13.48t18.87-5.8l11.71-1.09V53.25a15.53,15.53,0,0,0-1.52-7.49,8.5,8.5,0,0,0-4.76-3.87,26.63,26.63,0,0,0-8.7-1.15,57.36,57.36,0,0,0-8.32.66,54.5,54.5,0,0,0-8.61,2V31.85a57.4,57.4,0,0,1,9.5-2,76.57,76.57,0,0,1,10-.69Q418.94,29.15,424.85,31.53Zm-8.57,50.35a15.14,15.14,0,0,0,5.59-4V64.56l-10.27.91c-3.94.39-6.82,1.33-8.64,2.84a7.83,7.83,0,0,0-2.72,6.34A8,8,0,0,0,402.68,81q2.43,2.18,7.14,2.18A17,17,0,0,0,416.28,81.88Z"/><path class="cls-1" d="M2.41,124.06a135.07,135.07,0,0,1,25.71-2.52q19.16,0,28.6,7.46t9.44,23.24q0,15.15-9.29,22.89t-27.55,7.75c-1.72,0-4.46-.08-8.2-.23v24.84H2.41ZM43.55,165c3-2.61,4.42-6.81,4.42-12.63s-1.47-10.12-4.42-12.8-7.51-4-13.71-4a51.48,51.48,0,0,0-8.72.69v32.13a69.14,69.14,0,0,0,8.37.52Q39.14,168.88,43.55,165Z"/><path class="cls-1" d="M80.36,202.65q-5.82-5.94-5.82-18.68V144.72H92.9v38q0,5.4,2.21,7.69a8.4,8.4,0,0,0,6.34,2.3,15.54,15.54,0,0,0,6.14-1.32,13.5,13.5,0,0,0,5.17-3.79V144.72h18.36v62.77H116l-1.26-6.31H114a24.42,24.42,0,0,1-8.12,5.54,24.94,24.94,0,0,1-9.61,1.87Q86.2,208.59,80.36,202.65Zm14-65.91,12.92-22h19.51l-15.61,22Z"/><path class="cls-1" d="M154.19,207.75a67.33,67.33,0,0,1-11.65-2.61V114.76H160.9v36h.86a18.25,18.25,0,0,1,6.89-5.22,22.84,22.84,0,0,1,9.35-1.84,23.42,23.42,0,0,1,12.34,3.33,23,23,0,0,1,8.78,10.3q3.27,7,3.27,17.47,0,16.71-8.87,25.25t-26.6,8.55A90.8,90.8,0,0,1,154.19,207.75Zm25.88-17.36q3.84-4.35,3.84-14.11t-3.3-13.63q-3.3-3.93-9.55-3.93a16.63,16.63,0,0,0-5.6.95,12,12,0,0,0-4.56,2.84v31.33a28.74,28.74,0,0,0,7.4.92Q176.22,194.76,180.07,190.39Z"/><path class="cls-1" d="M211,207.49V114.76h18.36v92.73Z"/><path class="cls-1" d="M241.43,133.13a8.87,8.87,0,0,1-2.84-7.06q0-4.65,2.81-7.12t8.55-2.46q5.69,0,8.5,2.46t2.81,7.12a8.92,8.92,0,0,1-2.81,7.06c-1.88,1.64-4.71,2.47-8.5,2.47S243.33,134.77,241.43,133.13Zm-.66,74.36V144.72h18.36v62.77Z"/><path class="cls-1" d="M276.2,200.58q-8.34-8.12-8.34-24.36t8.86-24.42q8.86-8.06,25.68-8.06a62.87,62.87,0,0,1,14.06,1.44v14.51a59.1,59.1,0,0,0-11.54-1.2,25.56,25.56,0,0,0-10.35,1.78,11.57,11.57,0,0,0-5.88,5.65,23.05,23.05,0,0,0-1.9,10.13q0,9.47,4.08,13.66t12.51,4.19a38.12,38.12,0,0,0,6-.49c2-.33,4.4-.85,7.12-1.58v14.52a51.3,51.3,0,0,1-15.95,2.35Q284.55,208.7,276.2,200.58Z"/><path class="cls-1" d="M362.48,146.27a17.49,17.49,0,0,1,9.35,8.29q3,5.76,3,15.64v37.29H359.73l-1.27-6.19h-.86a16.57,16.57,0,0,1-7.06,5.53,26.86,26.86,0,0,1-20.48-.45,16.38,16.38,0,0,1-7-6.37,18.32,18.32,0,0,1-2.44-9.56q0-9,6.28-13.94t19.83-5.8l10.21-.86v-.8a14,14,0,0,0-1.4-6.83,7.91,7.91,0,0,0-4.48-3.53,26.57,26.57,0,0,0-8.41-1.06,61.71,61.71,0,0,0-8.4.63,54.54,54.54,0,0,0-8.64,1.89V146.38a68.77,68.77,0,0,1,9.93-1.95,82.83,82.83,0,0,1,10.39-.69Q356.16,143.74,362.48,146.27ZM352.26,195a12.57,12.57,0,0,0,4.65-3V180.18l-8.37.63c-3.45.27-6,1.06-7.52,2.38a6.84,6.84,0,0,0-2.35,5.54,6.66,6.66,0,0,0,2.12,5.34q2.11,1.83,6.2,1.83A15.22,15.22,0,0,0,352.26,195Z"/><polygon class="cls-1" points="2.66 344.72 2.66 259.85 11.5 259.85 11.5 324.73 82.59 260.15 427.45 260.15 427.45 144.59 436.29 144.59 436.29 268.99 86 268.99 2.66 344.72"/></svg>