<?xml version="1.0" encoding="UTF-8"?>
<!-- Generator: Adobe Illustrator 19.0.0, SVG Export Plug-In . SVG Version: 6.00 Build 0)  -->
<svg version="1.1" id="Layer_1" xmlns="http://www.w3.org/2000/svg" xmlns:xlink="http://www.w3.org/1999/xlink" x="0px" y="0px" viewBox="-104 268 402 258" style="enable-background:new -104 268 402 258;" xml:space="preserve">
<style type="text/css">
	.st0{fill:#0695D6;}
	.st1{enable-background:new    ;}
	.st2{fill:#FFFFFF;}
	.st3{fill:#07A3EB;}
</style>
<title>logo_consulta-publica</title>
<g>
	<path class="st0" d="M211.1,487c0,5.2-4.2,9.4-9.4,9.4c0,0,0,0,0,0H-38.1c-1.5,0-2.7-1.2-2.7-2.7c0-0.7,0.3-1.4,0.8-1.9l23.1-22.8   c0.7-0.7,1.7-1.1,2.7-1.1h215.9c5.2,0,9.4,4.2,9.4,9.4V487z"/>
</g>
<g class="st1">
	<path class="st2" d="M-12.2,486.3h2.9v3h-2.9V486.3z"/>
	<path class="st2" d="M2.2,489.3v-1.4c-0.8,1-2,1.7-3.8,1.7c-2.2,0-4.2-1.3-4.2-3.6v0c0-2.6,2-3.8,4.7-3.8c1.4,0,2.3,0.2,3.2,0.5   v-0.2c0-1.6-1-2.5-2.9-2.5c-1.3,0-2.3,0.3-3.3,0.7l-0.7-2.1c1.3-0.6,2.5-1,4.4-1c3.4,0,5.1,1.8,5.1,4.9v6.9H2.2z M2.2,484.4   c-0.7-0.3-1.6-0.5-2.7-0.5c-1.7,0-2.7,0.7-2.7,1.8v0c0,1.1,1,1.7,2.3,1.7c1.8,0,3.1-1,3.1-2.5V484.4z"/>
</g>
<g class="st1">
	<path class="st2" d="M9.1,477.6h2.7v2.6c0.7-1.7,2.1-2.9,4.1-2.9v2.8h-0.2c-2.3,0-4,1.5-4,4.6v4.4H9.1V477.6z"/>
</g>
<g class="st1">
	<path class="st2" d="M18.9,491.5l1-2c1.2,0.8,2.6,1.2,4.2,1.2c2.4,0,3.7-1.2,3.7-3.6v-0.9c-1,1.3-2.2,2.1-4.1,2.1   c-2.7,0-5.3-2-5.3-5.5v0c0-3.4,2.6-5.5,5.3-5.5c2,0,3.2,0.9,4.1,2v-1.7h2.7v9.3c0,2-0.5,3.4-1.5,4.4c-1.1,1.1-2.7,1.6-4.8,1.6   C22.2,492.9,20.4,492.4,18.9,491.5z M27.8,482.9L27.8,482.9c0-2-1.6-3.3-3.4-3.3c-1.9,0-3.3,1.3-3.3,3.2v0c0,1.9,1.5,3.2,3.3,3.2   C26.2,486.1,27.8,484.8,27.8,482.9z"/>
	<path class="st2" d="M34.2,483.5L34.2,483.5c0-3.4,2.4-6.1,5.7-6.1c3.7,0,5.6,2.9,5.6,6.3c0,0.2,0,0.5,0,0.8h-8.6   c0.3,1.9,1.6,3,3.4,3c1.3,0,2.2-0.5,3.2-1.4l1.6,1.4c-1.1,1.3-2.6,2.2-4.8,2.2C36.8,489.6,34.2,487.1,34.2,483.5z M42.9,482.6   c-0.2-1.7-1.2-3.1-3-3.1c-1.6,0-2.8,1.3-3,3.1H42.9z"/>
	<path class="st2" d="M49.3,477.6H52v1.8c0.8-1.1,1.8-2.1,3.6-2.1c2.6,0,4.2,1.8,4.2,4.5v7.4h-2.7v-6.6c0-1.8-0.9-2.9-2.5-2.9   c-1.5,0-2.6,1.1-2.6,2.9v6.6h-2.7V477.6z"/>
	<path class="st2" d="M64.7,486.1v-6.1h-1.5v-2.3h1.5v-3.2h2.7v3.2h3.1v2.3h-3.1v5.7c0,1,0.5,1.5,1.4,1.5c0.6,0,1.1-0.1,1.7-0.4v2.2   c-0.7,0.4-1.4,0.6-2.4,0.6C66.1,489.5,64.7,488.6,64.7,486.1z"/>
	<path class="st2" d="M74.3,473.3h2.9v2.5h-2.9V473.3z M74.4,477.6h2.7v11.7h-2.7V477.6z"/>
	<path class="st2" d="M81.7,477.6h2.7v1.8c0.8-1.1,1.8-2.1,3.6-2.1c2.6,0,4.2,1.8,4.2,4.5v7.4h-2.7v-6.6c0-1.8-0.9-2.9-2.5-2.9   c-1.5,0-2.6,1.1-2.6,2.9v6.6h-2.7V477.6z"/>
	<path class="st2" d="M103.7,489.3v-1.4c-0.8,1-2,1.7-3.8,1.7c-2.2,0-4.2-1.3-4.2-3.6v0c0-2.6,2-3.8,4.7-3.8c1.4,0,2.3,0.2,3.2,0.5   v-0.2c0-1.6-1-2.5-2.9-2.5c-1.3,0-2.3,0.3-3.3,0.7l-0.7-2.1c1.3-0.6,2.5-1,4.4-1c3.4,0,5.1,1.8,5.1,4.9v6.9H103.7z M103.7,484.4   c-0.7-0.3-1.6-0.5-2.7-0.5c-1.7,0-2.7,0.7-2.7,1.8v0c0,1.1,1,1.7,2.3,1.7c1.8,0,3.1-1,3.1-2.5V484.4z"/>
</g>
<g class="st1">
	<path class="st2" d="M110.3,486.3h2.9v3h-2.9V486.3z"/>
</g>
<g class="st1">
	<path class="st2" d="M117.3,491.5l1-2c1.2,0.8,2.6,1.2,4.2,1.2c2.4,0,3.7-1.2,3.7-3.6v-0.9c-1,1.3-2.2,2.1-4.1,2.1   c-2.7,0-5.3-2-5.3-5.5v0c0-3.4,2.6-5.5,5.3-5.5c2,0,3.2,0.9,4.1,2v-1.7h2.7v9.3c0,2-0.5,3.4-1.5,4.4c-1.1,1.1-2.7,1.6-4.8,1.6   C120.6,492.9,118.8,492.4,117.3,491.5z M126.2,482.9L126.2,482.9c0-2-1.6-3.3-3.4-3.3s-3.3,1.3-3.3,3.2v0c0,1.9,1.5,3.2,3.3,3.2   C124.6,486.1,126.2,484.8,126.2,482.9z"/>
	<path class="st2" d="M132.6,483.5L132.6,483.5c0-3.4,2.7-6.1,6.2-6.1s6.2,2.7,6.2,6.1v0c0,3.3-2.7,6.1-6.3,6.1   C135.2,489.6,132.6,486.8,132.6,483.5z M142.4,483.5L142.4,483.5c0-2.1-1.5-3.8-3.6-3.8c-2.1,0-3.5,1.7-3.5,3.7v0   c0,2,1.5,3.8,3.6,3.8C141,487.2,142.4,485.5,142.4,483.5z"/>
</g>
<g class="st1">
	<path class="st2" d="M151.5,487.5v1.8h-2.7v-16.1h2.7v6.4c0.9-1.2,2.1-2.2,4-2.2c2.8,0,5.4,2.2,5.4,6.1v0c0,3.9-2.7,6.1-5.4,6.1   C153.5,489.5,152.3,488.6,151.5,487.5z M158.2,483.5L158.2,483.5c0-2.3-1.5-3.8-3.3-3.8c-1.8,0-3.4,1.5-3.4,3.7v0   c0,2.3,1.6,3.7,3.4,3.7C156.7,487.2,158.2,485.8,158.2,483.5z"/>
</g>
<g class="st1">
	<path class="st2" d="M164.4,486.3h2.9v3h-2.9V486.3z"/>
	<path class="st2" d="M178.7,489.3v-1.4c-0.8,1-2,1.7-3.8,1.7c-2.2,0-4.2-1.3-4.2-3.6v0c0-2.6,2-3.8,4.7-3.8c1.4,0,2.3,0.2,3.2,0.5   v-0.2c0-1.6-1-2.5-2.9-2.5c-1.3,0-2.3,0.3-3.3,0.7l-0.7-2.1c1.3-0.6,2.5-1,4.4-1c3.4,0,5.1,1.8,5.1,4.9v6.9H178.7z M178.8,484.4   c-0.7-0.3-1.6-0.5-2.7-0.5c-1.7,0-2.7,0.7-2.7,1.8v0c0,1.1,1,1.7,2.3,1.7c1.8,0,3.1-1,3.1-2.5V484.4z"/>
	<path class="st2" d="M185.7,477.6h2.7v2.6c0.7-1.7,2.1-2.9,4.1-2.9v2.8h-0.2c-2.3,0-4,1.5-4,4.6v4.4h-2.7V477.6z"/>
</g>
<g>
	<path class="st2" d="M-64.3,490c0,3.2,2.7,5.7,5.8,5.7c1.5,0,3-0.6,4-1.7l34-34.1c0.6-0.6,1.4-0.9,2.2-0.9h215.7   c6.4,0,11.6-5.2,11.6-11.6v-53.5c0-4.7,3.8-8.4,8.4-8.4c0,0,0,0,0,0h32.6c4.7,0,8.4-3.8,8.4-8.4v0v-69.7c0-4.8-3.9-8.8-8.8-8.8   H-56.4c-4.4,0-7.9,3.5-7.9,7.9V490z"/>
</g>
<g>
	<path class="st0" d="M-37.9,342.2v-0.1c0-12.1,9.3-21.6,21.9-21.6c8.5,0,14,3.6,17.7,8.6l-8.7,6.7c-2.4-2.9-5.1-4.8-9.1-4.8   c-5.8,0-9.9,5-9.9,11v0.1c0,6.3,4.1,11.1,9.9,11.1c4.3,0,6.9-2,9.4-5l8.7,6.2c-3.9,5.4-9.2,9.4-18.4,9.4   C-28.2,364-37.8,354.7-38,343C-38,342.8-38,342.5-37.9,342.2z"/>
</g>
<g>
	<path class="st0" d="M4.4,347v-0.1c0-9.2,7.5-16.8,17.8-16.8s17.7,7.6,17.7,16.7v0.1c0,9.1-7.5,16.8-17.8,16.8S4.4,356.1,4.4,347z    M28.9,347v-0.1c0.2-3.9-2.8-7.1-6.7-7.3c-0.1,0-0.1,0-0.2,0c-4.1,0-6.7,3.3-6.7,7.2v0.1c-0.1,3.9,2.9,7.1,6.7,7.2c0,0,0.1,0,0.1,0   C26.3,354.1,28.9,350.9,28.9,347L28.9,347z"/>
</g>
<g>
	<path class="st0" d="M44.6,330.8h11.3v4.5c2.1-2.7,5.1-5.2,9.6-5.2c6.8,0,10.9,4.5,10.9,11.8v21H65.3v-17.4c0-3.6-1.8-5.5-4.6-5.5   s-4.8,1.9-4.8,5.5v17.4H44.6V330.8z"/>
</g>
<g>
	<path class="st0" d="M79.9,358.8l4.2-6.8c3.2,2.3,7.1,3.5,11,3.7c2,0,2.9-0.6,2.9-1.7v-0.1c0-1.3-1.8-1.8-5.2-2.8   c-6.4-1.7-11.4-3.8-11.4-10.2v-0.1c0-6.8,5.5-10.7,12.9-10.7c4.7,0,9.3,1.3,13.3,3.8l-3.9,7.1c-2.9-1.7-6.1-2.8-9.5-3   c-1.7,0-2.6,0.7-2.6,1.6v0.1c0,1.2,1.9,1.8,5.2,2.9c6.4,1.8,11.4,4,11.4,10.2v0.1c0,7.1-5.3,10.8-13.1,10.8   C89.7,363.7,84.3,362,79.9,358.8z"/>
</g>
<g>
	<path class="st0" d="M112.6,351.8v-21h11.3v17.4c0,3.5,1.8,5.4,4.6,5.4s4.8-1.9,4.8-5.4v-17.4h11.2v32.2h-11.2v-4.5   c-2.1,2.7-5.1,5.2-9.6,5.2C116.8,363.6,112.6,359.1,112.6,351.8z"/>
</g>
<g>
	<path class="st0" d="M150.9,319.5h11.2v43.4h-11.2V319.5z"/>
</g>
<g>
	<path class="st0" d="M170.5,352.9v-13.1h-3.8v-9h3.8v-8.2h11.2v8.1h7.5v9h-7.5v11c0,2.3,1,3.2,3.1,3.2c1.5,0,3-0.4,4.3-1.1v8.8   c-2.4,1.3-5.1,1.9-7.9,1.9C174.5,363.6,170.5,360.6,170.5,352.9z"/>
</g>
<g>
	<path class="st0" d="M192.5,353.7v-0.1c0-6.7,5.1-10.1,12.6-10.1c2.6,0,5.2,0.4,7.7,1.3v-0.5c0-3.4-2.1-5.3-6.4-5.3   c-3.1,0-6.1,0.6-8.9,1.8l-2.3-7.9c4.1-1.7,8.5-2.6,13-2.5c5.8,0,9.7,1.4,12.2,3.9c2.4,2.4,3.5,5.7,3.5,10.2v18.5h-11.1v-3.4   c-2.4,2.7-5.9,4.2-9.5,4.1C197.2,363.6,192.5,360.1,192.5,353.7z M213,351.3v-1.5c-1.4-0.5-2.9-0.8-4.5-0.8c-3.3,0-5.2,1.6-5.2,4   v0.1c0,2.2,1.7,3.5,4,3.5C210.6,356.6,213,354.5,213,351.3z"/>
</g>
<g>
	<path class="st0" d="M-34.2,387.7h17.9c10.5,0,17.2,5.4,17.2,14.6v0.1c0,9.9-7.6,15-17.8,15h-5.8v11.9h-11.5V387.7z M-17.1,408.4   c4,0,6.6-2.2,6.6-5.5v-0.1c0-3.6-2.6-5.4-6.7-5.4h-5.5v11H-17.1z"/>
</g>
<g>
	<path class="st0" d="M4.9,418.1v-21h11.3v17.4c0,3.5,1.8,5.4,4.6,5.4s4.8-1.9,4.8-5.4v-17.4h11.2v32.2H25.6v-4.5   c-2.1,2.7-5.1,5.2-9.6,5.2C9.1,430,4.9,425.5,4.9,418.1z M22.7,383.4l10.5,3.4l-8.8,7.5h-7.8L22.7,383.4z"/>
</g>
<g>
	<path class="st0" d="M54.1,425.4v3.9H42.9v-43.4h11.3v15.5c2.2-2.7,4.9-5,9.8-5c7.7,0,14.3,6.4,14.3,16.6v0.1   c0,10.5-6.6,16.8-14.2,16.8C60.1,430.1,56.5,428.4,54.1,425.4z M67.1,413.3v-0.1c0-4.3-3-7.3-6.6-7.3s-6.6,3-6.6,7.3v0.1   c0,4.3,2.9,7.3,6.6,7.3S67.1,417.6,67.1,413.3L67.1,413.3z"/>
</g>
<g>
	<path class="st0" d="M83.3,385.9h11.2v43.4H83.3V385.9z"/>
</g>
<g>
	<path class="st0" d="M101,385.9h11.7v8.3H101V385.9z M101.2,397.2h11.2v32.2h-11.3L101.2,397.2z"/>
</g>
<g>
	<path class="st0" d="M117.6,413.4v-0.1c0-9.1,7-16.8,17.2-16.8c6.6,0,11,2.9,13.7,7.1l-7.6,5.7c-1.6-2.1-3.3-3.4-6-3.4   c-3.7,0-6.4,3.3-6.4,7.2v0.1c0,4.2,2.6,7.3,6.4,7.3c2.7,0,4.5-1.2,6.2-3.3l7.6,5.5c-3,4.4-7.3,7.4-14.3,7.4   c-9.1,0.2-16.7-7.1-16.8-16.3C117.6,413.7,117.6,413.5,117.6,413.4z"/>
</g>
<g>
	<path class="st0" d="M151.1,420.1V420c0-6.7,5-10.1,12.6-10.1c2.6,0,5.2,0.4,7.7,1.3v-0.5c0-3.4-2.1-5.3-6.4-5.3   c-3.1,0-6.1,0.6-8.9,1.8l-2.3-7.9c4.1-1.7,8.5-2.6,13-2.5c5.8,0,9.7,1.4,12.3,3.9c2.4,2.4,3.5,5.7,3.5,10.2v18.5h-11.1v-3.4   c-2.4,2.7-5.9,4.2-9.5,4.1C155.7,430,151.1,426.5,151.1,420.1z M171.6,417.7v-1.5c-1.4-0.5-2.9-0.8-4.5-0.8c-3.3,0-5.2,1.6-5.2,4   v0.1c0,2.2,1.7,3.5,4,3.5C169.2,423,171.5,420.9,171.6,417.7L171.6,417.7z"/>
</g>
<g>
	<path class="st3" d="M-26.1,342c0-6.1,4.1-11,9.9-11c4,0,6.7,2,9.1,4.9l8.7-6.7c-3.7-5-9.2-8.6-17.7-8.6   c-12.6,0-21.9,9.5-21.9,21.6v0.1c0,1.6,0.2,3.1,0.5,4.7c3.2,0.5,6.4,0.7,9.6,0.7c1.1,0,2.1,0,3-0.1c-0.8-1.7-1.2-3.5-1.2-5.4   L-26.1,342z"/>
</g>
<g>
	<path class="st3" d="M22.2,330C13.6,330,7,335.3,5,342.3c3.6,0.3,7.2,1.1,10.5,2.5c0.6-3.1,3.3-5.3,6.5-5.2c3.9,0.1,7,3.2,6.9,7.1   c0,0.1,0,0.1,0,0.2v0.1c0,0.2,0,0.4,0,0.6h1.5c3.2,0.1,6.4-0.3,9.5-1.1C39.8,337.5,32.4,330,22.2,330z"/>
</g>
<g>
	<path class="st3" d="M65.6,330c-4.6,0-7.6,2.6-9.6,5.2v-4.5H44.6V345c3.8-1.6,7.9-2.5,12-2.8c0.8-1.4,2.4-2.3,4-2.2   c1.7-0.1,3.3,0.9,4,2.4c5.3,0.6,8.2,2.1,11.8,3.3v-3.9C76.5,334.6,72.4,330,65.6,330z"/>
</g>
<g>
	<path class="st3" d="M91.6,339.7v-0.1c0-1,0.9-1.6,2.6-1.6c3.4,0.2,6.6,1.3,9.5,3l3.9-7.1c-4-2.5-8.6-3.8-13.3-3.8   c-7.4,0-12.9,3.8-12.9,10.6v0.1c-0.1,2.6,1,5,3,6.6c1.3,0.1,2.7,0.2,4.3,0.2c5,0.1,10-0.8,14.6-2.6c-2.1-1-4.2-1.8-6.5-2.4   C93.5,341.5,91.6,340.9,91.6,339.7z"/>
</g>
<g>
	<path class="st3" d="M112.6,330.8v11.8c1.7-0.2,3.5-0.3,5.2-0.3c2,0,4.1,0.1,6.1,0.4v-11.9H112.6z"/>
</g>
<g>
	<path class="st3" d="M133.3,330.8v14.5c3.6,1.4,7.4,2.2,11.2,2.4v-16.9H133.3z"/>
</g>
<g>
	<path class="st3" d="M150.9,319.5v28.1c3.9-0.3,7.7-1.3,11.2-2.8v-25.3H150.9z"/>
</g>
<g>
	<path class="st3" d="M189.2,339.8v-9h-7.5v-8.2h-11.2v8.1h-3.8v9h3.8v2.8c1.9-0.2,3.8-0.3,5.7-0.3c1.9,0,3.7,0.1,5.5,0.3v-2.8   H189.2z"/>
</g>
<g>
	<path class="st3" d="M208.2,330.3c-4.5-0.1-8.9,0.8-13,2.5l2.3,7.9c2.8-1.2,5.9-1.8,8.9-1.8c4.3,0,6.4,1.9,6.4,5.3v0.5   c-2.5-0.9-5.1-1.3-7.7-1.3c-4.2,0-7.6,1-9.8,3.1c3.2,0.8,6.6,1.2,10,1.2c9.9,0,13-2.5,18.6-4.1c-0.1-4.1-1.1-7.2-3.4-9.4   C217.9,331.7,214,330.3,208.2,330.3z"/>
</g>
<g>
	<path class="st3" d="M24.4,394.4h-7.8l6.2-10.9l10.5,3.4L24.4,394.4z M112.7,394.2H101v-8.3h11.7V394.2z"/>
</g>
<g>
	<path class="st3" d="M0.9,402.4v-0.1c0-9.1-6.8-14.6-17.2-14.6h-17.9v24c4.1-1.4,8.4-2.1,12.7-2c9.2,0,12.6,2.2,17.6,3.8   C-0.7,410.8,1.1,406.6,0.9,402.4z M-10.5,402.9c0,3.3-2.6,5.5-6.6,5.5h-5.5v-11h5.5c4.1,0,6.7,1.8,6.7,5.4V402.9z"/>
</g>
<g>
	<path class="st3" d="M4.9,397.1v17.9c0.8,0,1.8,0.1,2.7,0.1c2.9,0,5.8-0.2,8.6-0.8v-17.2H4.9z"/>
</g>
<g>
	<path class="st3" d="M25.6,397.1v14.1c3.6-1.1,7.4-1.6,11.2-1.5v-12.6H25.6z"/>
</g>
<g>
	<polygon class="st3" points="16.5,394.4 24.4,394.4 33.2,386.8 22.7,383.4  "/>
</g>
<g>
	<path class="st3" d="M78.2,413.1c0-10.3-6.6-16.6-14.3-16.6c-4.8,0-7.6,2.3-9.8,5v-15.5H42.9v24.2c4.8,0.7,7.6,2.1,11.1,3.3v-0.2   c0-4.3,2.9-7.3,6.6-7.3s6.6,3,6.6,7.3v0.1c0,0.6-0.1,1.3-0.2,1.9c3.8,0,7.6-0.6,11.3-1.9V413.1z"/>
</g>
<g>
	<path class="st3" d="M83.3,385.9v25.5c3.6-1.2,7.4-1.8,11.2-1.7v-23.8H83.3z"/>
</g>
<g>
	<path class="st3" d="M101.2,397.1v13c4.9,0.7,7.7,2.2,11.2,3.3v-16.3H101.2z"/>
</g>
<g>
	<rect x="101" y="385.9" class="st3" width="11.7" height="8.3"/>
</g>
<g>
	<path class="st3" d="M128.5,413.1c0-3.9,2.7-7.2,6.4-7.2c2.7,0,4.4,1.3,6,3.4l7.6-5.7c-2.7-4.3-7.1-7.1-13.7-7.1   c-10.2,0-17.2,7.7-17.2,16.8v0.1c0,0.5,0,0.9,0.1,1.4c2.2,0.3,4.4,0.5,6.6,0.5c1.6,0,3.1-0.1,4.4-0.2c-0.1-0.6-0.2-1.2-0.2-1.8   L128.5,413.1z"/>
</g>
<g>
	<path class="st3" d="M179,400.6c-2.5-2.6-6.5-3.9-12.3-3.9c-4.5-0.1-8.9,0.8-13,2.5l2.3,7.9c2.8-1.2,5.9-1.8,8.9-1.8   c4.3,0,6.4,1.9,6.4,5.3v0.5c-2.5-0.9-5.1-1.3-7.7-1.3c-1.3,0-2.6,0.1-3.9,0.3c8.6,1.3,10.7,5,22.6,5v-4.4   C182.5,406.3,181.5,403,179,400.6z"/>
</g>
</svg>