<?xml version="1.0" encoding="utf-8"?>
<!-- Generator: Adobe Illustrator 24.0.3, SVG Export Plug-In . SVG Version: 6.00 Build 0)  -->
<svg version="1.1" id="Capa_6" xmlns="http://www.w3.org/2000/svg" xmlns:xlink="http://www.w3.org/1999/xlink" x="0px" y="0px"
	 viewBox="0 0 1316 316" style="enable-background:new 0 0 1316 316;" xml:space="preserve">
<style type="text/css">
	.st0{fill:#231F20;}
	.st1{fill:#32BBED;}
</style>
<title>Logo_argentinaunida</title>
<g>
	<path class="st0" d="M155.5,201.5l-9.9-30.4c-0.3-1-1.3-1.8-2.4-1.8h-42.4c-1.1,0-2.1,0.7-2.4,1.8l-9.9,30.4
		c-0.3,1-1.3,1.8-2.4,1.8H70.6c-1.7,0-3-1.7-2.4-3.3l38-112.8c0.3-1,1.3-1.7,2.4-1.7h27.1c1.1,0,2.1,0.7,2.4,1.7l38,112.8
		c0.6,1.6-0.7,3.3-2.4,3.3H158C156.9,203.3,155.9,202.6,155.5,201.5 M108,152.3h28c1.7,0,3-1.7,2.4-3.3l-14-42.8
		c-0.8-2.3-4.1-2.3-4.8,0l-14,42.8C105,150.6,106.2,152.3,108,152.3"/>
	<path class="st0" d="M191.6,116.4H204c1.3,0,2.3,0.9,2.5,2.2l1.3,9.1h1.1c2.6-4.1,5.9-7.2,10.1-9.2c4.2-2.1,8.8-3.1,13.7-3.1
		c1.6,0,3.1,0.1,4.7,0.3c1.3,0.1,2.2,1.3,2.2,2.6V132c0,1.5-1.3,2.7-2.7,2.5c-1.6-0.1-3.4-0.2-5.4-0.2c-4.1,0-8.2,0.8-12.2,2.5
		c-3.7,1.6-6.7,3.7-8.9,6.5c-0.4,0.5-0.6,1-0.6,1.6v55.8c0,1.4-1.1,2.5-2.5,2.5h-15.8c-1.4,0-2.5-1.1-2.5-2.5v-81.9
		C189,117.5,190.2,116.4,191.6,116.4"/>
	<path class="st0" d="M265,239c-4.2-0.5-8.1-1.3-11.8-2.2c-1.1-0.3-1.9-1.3-1.9-2.5V223c0-1.7,1.6-2.8,3.2-2.4
		c8.1,2.1,15.8,3.1,23.2,3.1c5.9,0,10.8-0.8,14.5-2.3c3.7-1.5,6.5-3.9,8.2-7.3c1.8-3.3,2.7-7.8,2.7-13.2V194h-1
		c-2.7,3.1-6,5.6-9.9,7.3c-3.9,1.8-8.3,2.6-13.2,2.6c-6.2,0-11.9-1.5-16.9-4.5c-5-3-9.1-7.7-12.1-14c-3-6.3-4.5-14.3-4.5-23.9
		c0-15.3,4-26.9,12-34.7c8-7.9,19.8-11.8,35.5-11.9c5.2,0,10.6,0.4,16.2,1.2c4.8,0.7,9.2,1.6,13.1,2.8c1.1,0.3,1.8,1.3,1.8,2.4v75.7
		c0,10-1.6,18.2-4.9,24.5c-3.3,6.3-8.2,10.9-14.8,13.9c-6.6,2.9-15,4.4-25.1,4.4C274.6,239.9,269.8,239.6,265,239 M295.7,185.1
		c2.6-1,4.9-2.5,6.7-4.5c0.5-0.5,0.7-1.1,0.7-1.8v-44.3c0-1.2-0.9-2.3-2.1-2.5c-3.3-0.6-6.6-0.9-9.9-0.9c-8.2,0-14.4,2.3-18.5,6.9
		c-4.1,4.6-6.2,11.8-6.2,21.8c0,9.9,1.7,16.9,5.2,21c3.5,4.1,8.4,6.1,14.8,6.1C289.7,186.9,292.7,186.3,295.7,185.1"/>
	<path class="st0" d="M412.8,166.1h-48.5c-1.5,0-2.7,1.3-2.5,2.9c0.4,4.3,1.4,7.8,3,10.5c1.9,3.3,4.7,5.7,8.6,7.2
		c3.9,1.5,9.1,2.2,15.5,2.2c5.5,0,11.8-0.8,18.7-2.3c1.6-0.4,3.1,0.8,3.1,2.5v10.6c0,1.2-0.8,2.2-2,2.5c-7.7,1.8-15.2,2.6-22.7,2.6
		c-10.4,0-18.9-1.6-25.5-4.7c-6.7-3.1-11.6-8-14.9-14.6c-3.3-6.6-4.9-15.2-4.9-25.8c0-9.7,1.5-17.9,4.5-24.6
		c3-6.7,7.4-11.7,13.1-15.1c5.7-3.4,12.7-5.1,20.8-5.1c11.8,0,20.8,3.8,27,11.4c6.2,7.6,9.2,19,9.2,34v3.1
		C415.3,164.9,414.2,166.1,412.8,166.1 M366.1,134.4c-2.6,3.4-4.1,9-4.5,16.5c-0.1,1.4,1.1,2.7,2.5,2.7h29.1c1.4,0,2.6-1.2,2.5-2.7
		c-0.4-7.6-1.8-13.1-4.3-16.5c-2.8-3.8-6.9-5.7-12.5-5.7C373.3,128.6,369,130.5,366.1,134.4"/>
	<path class="st0" d="M433.4,116.4H446c1.3,0,2.3,0.9,2.5,2.1l1.1,7h1.1c3.3-3.4,7.2-6,11.7-7.8c4.5-1.8,9.3-2.7,14.4-2.7
		c9,0,16.1,2.6,21.3,7.9c5.2,5.3,7.8,13.6,7.8,25.1v52.8c0,1.4-1.1,2.5-2.5,2.5h-15.8c-1.4,0-2.5-1.1-2.5-2.5v-51.6
		c0-5.8-1.2-9.9-3.7-12.4c-2.4-2.5-6-3.7-10.7-3.7c-3.5,0-7,0.7-10.4,2.2c-3.1,1.3-5.8,3.3-7.9,5.8c-0.4,0.5-0.6,1.1-0.6,1.7v58
		c0,1.4-1.1,2.5-2.5,2.5h-15.8c-1.4,0-2.5-1.1-2.5-2.5v-81.9C430.8,117.5,432,116.4,433.4,116.4"/>
	<path class="st0" d="M577.6,189.4v11.6c0,1.2-0.9,2.3-2,2.5c-4.4,0.9-8.7,1.3-13,1.3c-20.6,0-30.9-10.4-30.9-31.2v-38.2
		c0-1.4-1.1-2.5-2.5-2.5h-9.9c-1.4,0-2.5-1.1-2.5-2.5v-11.6c0-1.4,1.1-2.5,2.5-2.5h10.2c1.3,0,2.4-1,2.5-2.2l3.1-26.5
		c0.2-1.3,1.2-2.2,2.5-2.2H550c1.4,0,2.5,1.1,2.5,2.5v25.9c0,1.4,1.1,2.5,2.5,2.5h19.2c1.4,0,2.5,1.1,2.5,2.5v11.6
		c0,1.4-1.1,2.5-2.5,2.5h-19.2c-1.4,0-2.5,1.1-2.5,2.5v34.8c0,4.3,0.5,7.6,1.6,10.1c1.1,2.5,2.7,4.3,5,5.4c2.2,1.1,5.2,1.6,8.8,1.6
		c1.9,0,4.1-0.2,6.8-0.6C576.2,186.7,577.6,187.9,577.6,189.4"/>
	<path class="st0" d="M591.4,98.5c-2.2-1.9-3.3-4.7-3.3-8.4c0-3.7,1.1-6.5,3.3-8.4c2.2-2,5.5-3,9.9-3c4.4,0,7.7,1,9.9,3
		c2.2,2,3.3,4.8,3.3,8.4c0,3.7-1.1,6.5-3.3,8.4c-2.2,1.9-5.5,2.9-9.9,2.9C596.9,101.5,593.6,100.5,591.4,98.5 M590.8,200.7v-81.9
		c0-1.4,1.1-2.5,2.5-2.5h15.9c1.4,0,2.5,1.1,2.5,2.5v81.9c0,1.4-1.1,2.5-2.5,2.5h-15.9C592,203.3,590.8,202.2,590.8,200.7"/>
	<path class="st0" d="M635,116.4h12.6c1.3,0,2.3,0.9,2.5,2.1l1.1,7h1.1c3.3-3.4,7.2-6,11.7-7.8c4.5-1.8,9.3-2.7,14.4-2.7
		c9,0,16.1,2.6,21.3,7.9c5.2,5.3,7.8,13.6,7.8,25.1v52.8c0,1.4-1.1,2.5-2.5,2.5h-15.8c-1.4,0-2.5-1.1-2.5-2.5v-51.6
		c0-5.8-1.2-9.9-3.7-12.4c-2.4-2.5-6-3.7-10.7-3.7c-3.5,0-7,0.7-10.4,2.2c-3.1,1.3-5.8,3.3-7.9,5.8c-0.4,0.5-0.6,1.1-0.6,1.7v58
		c0,1.4-1.1,2.5-2.5,2.5H635c-1.4,0-2.5-1.1-2.5-2.5v-81.9C632.5,117.5,633.6,116.4,635,116.4"/>
	<path class="st0" d="M777.8,118.3c5.5,2.2,9.6,5.8,12.2,10.9c2.7,5,4,11.9,4,20.6v51c0,1.4-1.1,2.5-2.5,2.5H779
		c-1.2,0-2.3-0.9-2.5-2.1l-1.1-6.9h-1.1c-2.6,3.5-6,6.1-10.1,7.8c-4.1,1.8-8.7,2.7-13.7,2.7c-5.7,0-10.6-1-14.7-3
		c-4.1-2-7.3-4.9-9.5-8.6c-2.2-3.7-3.3-8-3.3-13c0-8.1,2.8-14.3,8.3-18.7c5.5-4.4,14.3-7.1,26.2-8l16.3-1.5v-3.4
		c0-4.4-0.7-7.9-2.1-10.4c-1.4-2.5-3.6-4.3-6.6-5.4c-3-1.1-7-1.6-12.1-1.6c-3.6,0-7.4,0.3-11.6,0.9c-3,0.4-5.9,1-8.7,1.8
		c-1.6,0.4-3.2-0.7-3.2-2.4v-10.7c0-1.1,0.7-2.2,1.8-2.5c3.5-1,7.2-1.7,11.4-2.3c4.9-0.6,9.5-1,13.8-1
		C765.2,115,772.4,116.1,777.8,118.3 M765.9,188.2c2.6-1,4.9-2.6,7-4.8c0.5-0.5,0.7-1.2,0.7-1.8v-14.7c0-1.5-1.3-2.7-2.8-2.5
		l-11.5,1c-5.5,0.5-9.5,1.8-12,3.9c-2.5,2.1-3.8,5-3.8,8.8c0,3.8,1.1,6.7,3.4,8.8c2.3,2,5.6,3,9.9,3
		C760.1,190,763,189.4,765.9,188.2"/>
	<path class="st1" d="M840.9,195.6c-5.4-5.6-8.1-14.4-8.1-26.3v-48.2c0-2.4,2-4.4,4.4-4.4h20.7c2.4,0,4.4,2,4.4,4.4v46.1
		c0,4.2,0.8,7.2,2.5,9c1.6,1.8,4,2.7,7.2,2.7c2.3,0,4.6-0.5,7-1.5c2.4-1,4.3-2.3,5.7-4v-52.3c0-2.4,2-4.4,4.4-4.4h20.7
		c2.4,0,4.4,2,4.4,4.4v77.1c0,2.4-2,4.4-4.4,4.4h-19.8l-2-8.4h-1.2c-3.2,3.2-6.8,5.7-10.8,7.4c-4,1.7-8.3,2.5-12.8,2.5
		C853.7,204,846.3,201.3,840.9,195.6"/>
	<path class="st1" d="M931.5,121.1c0-2.4,2-4.4,4.4-4.4h19.8l2,8.4h1.3c3-3.2,6.6-5.6,10.8-7.3c4.2-1.7,8.8-2.5,13.7-2.5
		c9.2,0,16.5,2.8,21.8,8.5c5.4,5.7,8.1,14.5,8.1,26.4v48c0,2.4-2,4.4-4.4,4.4h-20.7c-2.4,0-4.4-2-4.4-4.4v-46.1c0-4.2-0.8-7.2-2.5-9
		c-1.7-1.7-4.2-2.6-7.6-2.6c-2.4,0-4.8,0.5-7.2,1.4c-2.3,1-4.3,2.3-5.8,4v52.2c0,2.4-2,4.4-4.4,4.4h-20.7c-2.4,0-4.4-2-4.4-4.4
		V121.1z"/>
	<path class="st1" d="M1031.7,102.6c-2.9-2.5-4.4-6.2-4.4-11.1c0-4.8,1.5-8.5,4.4-11c2.9-2.5,7.4-3.8,13.5-3.8
		c6,0,10.5,1.3,13.4,3.8c2.9,2.5,4.4,6.2,4.4,11c0,4.9-1.5,8.5-4.4,11.1c-2.9,2.5-7.4,3.8-13.4,3.8
		C1039.2,106.3,1034.7,105.1,1031.7,102.6 M1030.4,198.2v-77.1c0-2.4,2-4.4,4.4-4.4h20.8c2.4,0,4.4,2,4.4,4.4v77.1
		c0,2.4-2,4.4-4.4,4.4h-20.8C1032.4,202.6,1030.4,200.6,1030.4,198.2"/>
	<path class="st1" d="M1091.5,199.6c-5.4-3-9.7-7.7-12.8-14.1c-3.2-6.4-4.8-14.4-4.8-24.1c0-14.9,4.1-26.3,12.3-34.3
		c8.2-8,20.1-11.9,35.7-11.9c2.4,0,5.2,0.2,8.5,0.5V80.4c0-2.4,2-4.4,4.4-4.4h20.7c2.4,0,4.4,2,4.4,4.4v117.8c0,2.4-2,4.4-4.4,4.4
		h-20.3l-1.8-8.9h-1.3c-2.5,3.3-5.7,5.9-9.5,7.7c-3.8,1.9-8.2,2.8-13.1,2.8C1102.9,204.1,1096.8,202.6,1091.5,199.6 M1125,179.2
		c2.1-0.7,3.9-1.7,5.4-3.1v-38c-2.6-0.5-5.4-0.8-8.5-0.8c-6.3,0-11,1.7-14,5.1c-3,3.4-4.5,9-4.5,16.7c0,7.7,1.3,13.2,3.9,16.3
		c2.6,3.2,6.3,4.7,11.2,4.7C1120.7,180.3,1122.9,179.9,1125,179.2"/>
	<path class="st1" d="M1230.3,118.9c6.1,2.4,10.5,6.4,13.4,12c2.9,5.5,4.3,13,4.3,22.5v44.8c0,2.4-2,4.4-4.4,4.4h-19.8l-2-8.1h-1.3
		c-2.4,3.3-5.5,5.8-9.2,7.4c-3.7,1.6-8,2.4-12.8,2.4c-5.9,0-11-1.1-15.3-3.2c-4.3-2.1-7.6-5.1-9.8-8.9c-2.2-3.8-3.4-8.2-3.4-13.2
		c0-8.5,3-15,9-19.6c6-4.6,15.4-7.3,28.3-8.1l12.1-0.8c-0.1-3.2-0.8-5.8-2-7.7c-1.2-1.9-3.2-3.2-5.8-4.1c-2.6-0.8-6.3-1.2-10.8-1.2
		c-3.5,0-7.3,0.3-11.5,0.9c-4.2,0.6-8.1,1.4-11.8,2.5v-21.9c4.3-1.1,9-2,14.1-2.7c5.1-0.6,10-0.9,14.7-0.9
		C1216.2,115.3,1224.2,116.5,1230.3,118.9 M1214.2,183.2c1.9-0.6,3.6-1.5,5.2-2.7v-14.2l-8.9,0.6c-4,0.3-6.9,1.2-8.7,2.7
		c-1.9,1.5-2.8,3.7-2.8,6.4c0,2.6,0.8,4.6,2.5,6c1.6,1.4,4,2.1,7.1,2.1C1210.4,184.1,1212.3,183.8,1214.2,183.2"/>
</g>
</svg>
